<svg version="1.1" id="Airhorn_Icon" xmlns="http://www.w3.org/2000/svg" x="0" y="0" viewBox="0 0 125 100" xml:space="preserve"><style>.st0{fill:#fff}</style><path id="Rectangle_1109_9_" class="st0" d="M42.86 28.87c.29 1.57-.75 3.09-2.32 3.38l-11.4 2.13c-1.57.29-3.09-.75-3.38-2.32-.29-1.57.75-3.09 2.32-3.38l11.4-2.13a2.91 2.91 0 013.38 2.32z"/><path id="Rectangle_1109_8_" class="st0" d="M44.53 20.11a2.567 2.567 0 01-3.15 1.78l-9.85-2.74A2.567 2.567 0 0129.75 16a2.567 2.567 0 013.15-1.78l9.85 2.74a2.56 2.56 0 011.78 3.15z"/><path id="Rectangle_1109_7_" class="st0" d="M46.47 11.59a2.644 2.644 0 01-3.74.19l-7.86-7.1a2.653 2.653 0 01-.19-3.74 2.644 2.644 0 013.74-.19l7.86 7.1c1.09.98 1.17 2.65.19 3.74z"/><path class="st0" d="M99.06 65.17c.84-3.24-.6-6.52-3.33-8.17.83-5.06-1.87-10.01-6.47-12.11l3.38-13.06c.9-3.47-1.19-7.02-4.66-7.92l-2.61-.68c-.64-.17-1.29-.23-1.92-.2L57.03 5.48c-1.76-1.12-4.11-.19-4.61 1.84l-6.91 27.63c-.51 2.02 1.11 3.95 3.19 3.8l26.35-1.52-.97 3.74c-5.04-.37-9.79 2.69-11.49 7.55-3.05.25-5.75 2.38-6.56 5.5-.81 3.11.5 6.27 3.02 7.97L55 77.65c-3.03.26-5.71 2.39-6.51 5.5a7.385 7.385 0 005.3 9l8.57 2.22 11.3 2.93 8.86 2.3a7.385 7.385 0 009-5.3c.83-3.22-.59-6.49-3.28-8.15l4-15.45c3.15-.14 5.99-2.31 6.82-5.53zM56.33 33.29l-4.99.49 5.28-22.46 4.6 3.09-4.89 18.88zm27.01-5.52l1.68.44c1.77.46 2.84 2.27 2.38 4.04l-.44 1.68-4.89-1.27 1.27-4.89zm-2.47 9.51l4.89 1.27-1.27 4.89-4.89-1.27 1.27-4.89zm-5.04 8.97l9.47 2.45c3.37.87 5.64 3.85 5.94 6.46L67.48 49c1.55-2.12 4.98-3.63 8.35-2.75zm10.72 46.52a2.53 2.53 0 01-3.09 1.82l-28.3-7.33a2.53 2.53 0 01-1.82-3.09 2.53 2.53 0 013.09-1.82l28.3 7.33a2.53 2.53 0 011.82 3.09zm4.43-27.23l-28.3-7.33a2.53 2.53 0 01-1.82-3.09 2.53 2.53 0 013.09-1.82l28.3 7.33a2.53 2.53 0 011.82 3.09 2.539 2.539 0 01-3.09 1.82z"/></svg>