<svg xmlns="http://www.w3.org/2000/svg" width="83.738" height="100.001"><g data-name="Hand Icon" transform="translate(0 .001)" fill="#fff"><path data-name="Path 915" d="M1.292 45.785c.079-.8.143-1.608.244-2.408a5.748 5.748 0 01.248-.871c.261-.291.537-.57.781-.874a4.83 4.83 0 016.84-1.149 29.7 29.7 0 013.035 2.648c1.8 1.644 3.592 3.3 5.384 4.961 1.1 1.014 2.186 2.038 3.285 3.051q4.059 3.742 8.125 7.477c1.365 1.256 2.733 2.508 4.091 3.77.227.212.4.21.595-.02l1.114-1.346a.461.461 0 00-.077-.713q-2.42-2.212-4.834-4.429-3.012-2.776-6.016-5.562l-7.264-6.714c-1.883-1.749-3.751-3.514-5.631-5.265-.493-.459-1.027-.874-1.507-1.346-.789-.777-3.344-3.259-4.027-4.123a11.392 11.392 0 01-1.042-2.021 9.594 9.594 0 01.138-2.052 5.9 5.9 0 012.943-3.625c.222-.123.441-.252.662-.378a8.814 8.814 0 011.51-.178 6.185 6.185 0 014.039 1.834c1.253 1.194 4.252 4.1 5.524 5.27q3.86 3.558 7.731 7.1 2.854 2.627 5.7 5.266 4.328 4.023 8.648 8.054c.29.27.6.518.955.821l1.889-1.79c-.964-.918-1.85-1.784-2.761-2.623-2.56-2.36-5.134-4.7-7.694-7.063-1.433-1.321-2.846-2.663-4.275-3.988q-3.428-3.18-6.867-6.351c-.763-.7-1.548-1.386-2.3-2.1-1.236-1.177-2.6-2.256-3.078-4.021-.034-.126-.176-.223-.267-.333a1.638 1.638 0 00.118-.516c-.3-2.7 2.584-5.753 5.214-5.67a5.955 5.955 0 013.852 1.614c1.794 1.6 3.523 3.278 5.285 4.916q2.987 2.774 5.985 5.536c.75.693 1.5 1.389 2.253 2.075a2.352 2.352 0 00.415.245 2.045 2.045 0 00.265.4q1.751 1.643 3.516 3.271c2.677 2.469 5.335 4.959 8.044 7.393 1.664 1.5 3.346 2.986 5.137 4.322a21.286 21.286 0 003.676 2.007c.511.242-6.442-10.643-6.776-15.687s6.468-12.835 9.1-5.549 12.736 19.877 16.712 30.236 6.488 19-1.061 29.48-22.275 14.428-35.851 8.395a88.9 88.9 0 01-23.861-15.6c-1.814-1.688-3.64-3.363-5.459-5.047q-3.831-3.547-7.658-7.1c-1.216-1.128-2.4-2.3-3.649-3.383a6.916 6.916 0 01-1.992-2.754 7.224 7.224 0 00-.4-.762 1.3 1.3 0 00.1-.4 4.376 4.376 0 01.443-2.464 1.191 1.191 0 00.062-.369 2.224 2.224 0 00.3-.287 6.086 6.086 0 012.862-2.367 5.188 5.188 0 015.346 1.3c1.421 1.226 2.775 2.529 4.153 3.805q3.871 3.583 7.735 7.175c1.816 1.689 3.623 3.389 5.438 5.079a3.065 3.065 0 00.426.285c.346-.688.659-1.324.985-1.954a.574.574 0 00-.154-.8c-1.515-1.369-3-2.767-4.5-4.152-1.875-1.732-3.758-3.455-5.628-5.192q-4.328-4.02-8.645-8.052c-1.028-.954-2.1-1.863-3.116-2.829-1.149-1.092-2.317-2.174-3.358-3.363a10.606 10.606 0 01-1.155-2.146z"/><rect data-name="Rectangle 1109" width="4.69" height="14.07" rx="2.345" transform="rotate(-169.626 23.018 5.312)"/><rect data-name="Rectangle 1110" width="4.69" height="11.73" rx="2.345" transform="rotate(145.39 16.638 12.004)"/><rect data-name="Rectangle 1111" width="4.69" height="11.73" rx="2.345" transform="rotate(-124.61 29.424 -3.818)"/></g></svg>