<svg xmlns="http://www.w3.org/2000/svg" width="58.718" height="79.874" viewBox="0 0 58.718 79.874">
  <g id="Arcade_Icon" data-name="Arcade Icon" transform="translate(-247.248 -192.105)">
    <path id="Path_982" data-name="Path 982" d="M337.825,217.224v-.047a13.217,13.217,0,1,1,17.008-4.095,13.307,13.307,0,1,0-17.008,4.141Z" transform="translate(-67.396 0)" fill="#fff"/>
    <path id="Path_984" data-name="Path 984" d="M302.118,496.422h-51.1a3.865,3.865,0,0,0-3.775,3.859v13.751a3.867,3.867,0,0,0,3.863,3.863h51a3.867,3.867,0,0,0,3.858-3.859V500.285A3.867,3.867,0,0,0,302.118,496.422Zm-6.56,15.722h-6.61a3.359,3.359,0,0,1,0-6.718h6.61a3.359,3.359,0,0,1,0,6.718Z" transform="translate(0 -245.916)" fill="#fff"/>
    <path id="Path_985" data-name="Path 985" d="M356.479,200.429A13.217,13.217,0,1,0,338.414,217.9v.047a13.3,13.3,0,0,0,16.376-3.312l.049-.059c.1-.116.187-.235.278-.354.058-.076.116-.153.173-.23.045-.061.088-.124.132-.186A13.211,13.211,0,0,0,356.479,200.429Z" transform="translate(-67.985 -0.723)" fill="#fff"/>
    <path id="Path_986" data-name="Path 986" d="M309.659,438.5c-9.22,0-17.252,3.71-21.454,9.2h42.909C326.911,442.213,318.88,438.5,309.659,438.5Z" transform="translate(-33.097 -199.112)" fill="#fff"/>
    <path id="Path_987" data-name="Path 987" d="M380.014,352.664V334.186a15.19,15.19,0,0,1-11.976-.127v18.656a35.721,35.721,0,0,1,11.976-.051Z" transform="translate(-97.609 -114.712)" fill="#fff"/>
  </g>
</svg>
