<svg version="1.1" id="Chant_Icon" xmlns="http://www.w3.org/2000/svg" x="0" y="0" viewBox="0 0 125 100" xml:space="preserve"><style>.st0{fill:#fff}</style><circle class="st0" cx="80.42" cy="34.21" r="14.18"/><circle class="st0" cx="59.62" cy="21.76" r="5.15"/><path class="st0" d="M75.03 50.27c-6.83-5.71-12.44-3.6-17.02-3.79-9.81-.42-17.63-4.9-17.63-4.9s1.57-17.68 5.81-24.7l6.25 4.38 3.78-5.4L33.65.03l-3.78 5.4 2.76 1.93c-.78 1.32-1.96 3.55-3.31 6.78-2.11 5.07-11.04 32.1-5.13 39.29 2.93 3.57 25.68 9.64 25.68 9.64s-5.95 11.9-8.25 18.06c-2.3 6.16-5.92 18.93-5.92 18.93h29.07l8.07-21.12L83.49 99.9l19.32.17c-.01 0-18.59-42.1-27.78-49.8z"/></svg>