<svg xmlns="http://www.w3.org/2000/svg" width="102.467" height="68.251"><g data-name="Group 2592" fill="#fff"><path data-name="Subtraction 1" d="M78.868 55.343l2.243-10.964H48.853a18.984 18.984 0 01-19-19v-6.38a18.984 18.984 0 0119-19h34.614a18.985 18.985 0 0119 19v6.375a19 19 0 01-10.59 17.043L78.87 55.34zm4.639-35.979a3.631 3.631 0 103.631 3.635 3.635 3.635 0 00-3.632-3.636zm-17.75 0a3.631 3.631 0 103.63 3.635 3.635 3.635 0 00-3.634-3.636zm-17.75 0a3.631 3.631 0 103.631 3.635 3.635 3.635 0 00-3.631-3.636z"/><path data-name="Union 14" d="M26.542 12.909s-.073 3.859 0 9.6a42.133 42.133 0 00.518 7.384c.434 2.192 1.934 4.462 2.837 6.6a10.631 10.631 0 002.719 3.881 15.975 15.975 0 003.689 3.038 21.7 21.7 0 006.885 3.122 47.631 47.631 0 008.592.642c4.459.053 8.389 0 8.389 0a29.008 29.008 0 01-.065 6.016c-.263 2.024-4.072 4.089-5.868 4.089H21.355l2.243 10.97-13.333-11.824A15.336 15.336 0 01-.002 41.951V28.238a15.329 15.329 0 0115.33-15.329z"/></g></svg>