<svg version="1.1" id="Homerun_Icon" xmlns="http://www.w3.org/2000/svg" x="0" y="0" viewBox="0 0 125 100" xml:space="preserve"><style>.st0{fill:#fff}</style><circle class="st0" cx="44.47" cy="31.97" r="31.93"/><path class="st0" d="M21.52 65.55a40.474 40.474 0 0022.95 7.11v-4.54c-7.57 0-14.59-2.33-20.4-6.31l-2.55 3.74zM80.15 12.45l-3.97 2.17a35.892 35.892 0 014.43 16.97h4.54a40.562 40.562 0 00-5-19.14zM85.28 100.01L50.19 64.92l-3.24 3.23 31.86 31.86zM101.08 100.01L63.15 62.08l-3.23 3.24 34.69 34.69zM112.46 100.01v-3.27L73.72 58l-3.23 3.23 38.78 38.78zM112.46 81.34L78.18 47.06l-3.24 3.23 37.52 37.52zM112.46 64.53L82.1 34.16l-3.24 3.23 33.6 33.6z"/></svg>