<svg xmlns="http://www.w3.org/2000/svg" width="100.058" height="100.058"><g data-name="Group 2862" fill="#fff"><path data-name="Path 928" d="M72.445 0H27.612A27.644 27.644 0 000 27.612v44.834a27.643 27.643 0 0027.612 27.612h44.833a27.644 27.644 0 0027.613-27.612V27.612A27.644 27.644 0 0072.445 0zm18.736 72.446a18.756 18.756 0 01-18.735 18.735H27.612A18.755 18.755 0 018.878 72.446V27.612A18.756 18.756 0 0127.612 8.878h44.833a18.757 18.757 0 0118.736 18.734v44.834z"/><path data-name="Path 929" d="M50.029 25.824a24.207 24.207 0 1024.208 24.207 24.235 24.235 0 00-24.208-24.207zm0 40.077a15.871 15.871 0 1115.873-15.87 15.89 15.89 0 01-15.873 15.87z"/><path data-name="Path 930" d="M75.25 15.698a9.167 9.167 0 106.487 2.685 9.208 9.208 0 00-6.487-2.685z"/></g></svg>