<?xml version="1.0" encoding="utf-8"?>
<!-- Generator: Adobe Illustrator 24.0.1, SVG Export Plug-In . SVG Version: 6.00 Build 0)  -->
<svg version="1.1" id="Mic_Icon" xmlns="http://www.w3.org/2000/svg" xmlns:xlink="http://www.w3.org/1999/xlink" x="0px" y="0px"
	 viewBox="0 0 106.25 85.12" style="enable-background:new 0 0 106.25 85.12;" xml:space="preserve">
<style type="text/css">
	.st0{fill:#FFFFFF;}
</style>
<g>
	<path class="st0" d="M53.12,57.86L53.12,57.86c-8.32,0-15.06-6.74-15.06-15.06V15.25c0-8.32,6.74-15.06,15.06-15.06h0
		c8.32,0,15.06,6.74,15.06,15.06V42.8C68.19,51.12,61.44,57.86,53.12,57.86z"/>
	<path class="st0" d="M73.19,36.6v8.02c0,10.52-8.53,19.06-19.06,19.06h-2.02c-10.52,0-19.06-8.53-19.06-19.06V36.6h-6.37v8.02
		c0,13.29,10.25,24.22,23.25,25.32v8.88H33.9v6.37h37.65v-6.37H56.31v-8.88c13-1.11,23.25-12.04,23.25-25.32V36.6H73.19z"/>
</g>
</svg>
