<svg xmlns="http://www.w3.org/2000/svg" width="60.041" height="53.252"><path d="M29.73 11.561c1.64 1.544 3.262 3.076 4.889 4.6q5.1 4.787 10.205 9.573 3.623 3.416 7.194 6.884a1.673 1.673 0 01.444 1.081q.04 8.341.016 16.682a2.632 2.632 0 01-2.562 2.844c-4.44.043-8.881.015-13.458.015v-.912-13.077a2.865 2.865 0 00-3.062-3.106q-3.688-.019-7.377 0a2.905 2.905 0 00-3.091 3.171V53.19c-.344.018-.613.045-.883.045q-6.036.005-12.071 0a2.715 2.715 0 01-3.048-3.04c0-5.477-.01-10.953.018-16.43a1.765 1.765 0 01.437-1.162q10.937-10.374 21.919-20.7c.119-.104.253-.199.43-.342z" fill="#fff"/><path d="M52.124 20.052q3.4 3.17 6.752 6.381c1.407 1.339 1.548 3.007.376 4.2s-2.855 1.059-4.242-.254q-12.459-11.8-24.932-23.6c-.06-.057-.132-.1-.272-.21l-4.259 3.963q-7.044 6.572-14.084 13.149c-2.134 2-4.209 4.058-6.39 6a4.594 4.594 0 01-2.212 1.012A2.5 2.5 0 01.244 29.13a2.662 2.662 0 01.616-3.074c1.98-1.889 3.986-3.751 5.987-5.618Q17.23 10.752 27.62 1.072c1.54-1.435 2.937-1.429 4.474.022q5.939 5.608 11.868 11.227c.177.168.368.322.713.622" fill="#fff"/></svg>