<svg id="Rank_icon" data-name="Rank icon" xmlns="http://www.w3.org/2000/svg" width="81.04" height="58.008" viewBox="0 0 81.04 58.008">
  <path id="Path_66" data-name="Path 66" d="M721.592,439.823c-1.661,3.907-2.872,4.722-7.043,4.723q-19.447,0-38.893-.006c-3.306,0-5.579-1.834-6.007-4.76-.564-3.855,2.063-6.756,6.238-6.768,9.9-.028,19.807-.009,29.71-.009,2.881,0,5.767.1,8.642-.024,3.6-.151,6.135,1.186,7.354,4.682Z" transform="translate(-640.552 -432.968)" fill="#fff"/>
  <path id="Path_67" data-name="Path 67" d="M721.555,568.764c-1.209,3.52-3.788,4.709-7.361,4.689-12.717-.076-25.434-.016-38.151-.039-4.171-.007-6.861-2.706-6.495-6.4a5.486,5.486,0,0,1,5.352-5.1q20.606-.073,41.211.006c2.995.014,4.535,2.066,5.443,4.682Z" transform="translate(-640.515 -515.445)" fill="#fff"/>
  <path id="Path_68" data-name="Path 68" d="M721.5,504.452c-1.308,3.442-3.845,4.575-7.445,4.54-12.588-.126-25.177-.054-37.765-.044-1.966,0-3.829-.211-5.262-1.779a5.608,5.608,0,0,1-1.2-6.007,5.241,5.241,0,0,1,4.684-3.64c.714-.07,1.436-.079,2.154-.079,12.468,0,24.938.078,37.405-.054,3.609-.038,6.123,1.113,7.433,4.542Z" transform="translate(-640.463 -474.185)" fill="#fff"/>
  <path id="Path_69" data-name="Path 69" d="M589,437.674c1.2-3.508,3.746-4.885,7.331-4.664a45.446,45.446,0,0,1,5.53.29,5.5,5.5,0,0,1,4.429,6.232,5.7,5.7,0,0,1-5.617,5.013c-1.494.038-2.992.013-4.488.013-4.361,0-5.5-.749-7.185-4.723Z" transform="translate(-589 -432.98)" fill="#fff"/>
  <path id="Path_70" data-name="Path 70" d="M589,566.118c1.383-3.386,3.921-4.728,7.514-4.385,1.424.136,2.873-.013,4.308.039a5.689,5.689,0,0,1,5.47,5.179,5.342,5.342,0,0,1-4.432,6.025,40.2,40.2,0,0,1-8.029.1c-2.646-.183-3.945-2.165-4.831-4.439Z" transform="translate(-589 -515.321)" fill="#fff"/>
  <path id="Path_71" data-name="Path 71" d="M589,501.931c1.263-3.351,3.689-4.784,7.243-4.508,1.667.129,3.356-.03,5.02.117a5.683,5.683,0,0,1,0,11.3c-1.664.145-3.353,0-5.02.125-3.544.265-5.982-1.155-7.246-4.508Z" transform="translate(-589 -474.186)" fill="#fff"/>
</svg>
