<?xml version="1.0" encoding="utf-8"?>
<!-- Generator: Adobe Illustrator 24.0.1, SVG Export Plug-In . SVG Version: 6.00 Build 0)  -->
<svg version="1.1" id="Scream_Icon" xmlns="http://www.w3.org/2000/svg" xmlns:xlink="http://www.w3.org/1999/xlink" x="0px"
	 y="0px" viewBox="0 0 125 100" style="enable-background:new 0 0 125 100;" xml:space="preserve">
<style type="text/css">
	.st0{fill:#FFFFFF;}
</style>
<g>
	<g>
		<path class="st0" d="M14.14,51.91c-0.23,0-0.46-0.08-0.65-0.24c-0.3-0.26-0.42-0.68-0.3-1.06l2.62-8.35L2.22,40.9
			c-0.42-0.04-0.77-0.34-0.87-0.75c-0.1-0.41,0.06-0.84,0.41-1.07L10.77,33L0.6,25.8c-0.34-0.24-0.49-0.66-0.39-1.06
			c0.1-0.4,0.43-0.7,0.84-0.75l11.13-1.43l-5.6-11.71c-0.18-0.38-0.1-0.84,0.2-1.14s0.76-0.38,1.14-0.19l11.97,5.88l0.7-10.1
			c0.03-0.41,0.3-0.76,0.69-0.88c0.39-0.12,0.82,0,1.08,0.32l5.53,6.7l4.61-9.81c0.18-0.39,0.59-0.62,1.02-0.57
			c0.43,0.05,0.77,0.36,0.87,0.78l2.52,11.59c0.12,0.54-0.22,1.07-0.76,1.19c-0.54,0.12-1.07-0.23-1.19-0.76l-1.89-8.7l-4.02,8.57
			c-0.15,0.31-0.44,0.52-0.78,0.57c-0.33,0.04-0.68-0.09-0.9-0.36l-4.94-5.98l-0.63,9.09c-0.02,0.33-0.21,0.63-0.5,0.8
			C21,17.99,20.65,18,20.35,17.86L9.63,12.59l4.95,10.36c0.14,0.29,0.13,0.63-0.02,0.91s-0.43,0.47-0.75,0.51l-9.96,1.28l9.26,6.55
			c0.27,0.19,0.43,0.5,0.42,0.83s-0.17,0.63-0.44,0.82l-7.91,5.34l12.04,1.21c0.3,0.03,0.57,0.19,0.73,0.44
			c0.17,0.25,0.21,0.56,0.12,0.85l-2.28,7.29l6.51-3.21c0.5-0.24,1.09-0.04,1.34,0.45c0.25,0.5,0.04,1.09-0.45,1.34l-8.6,4.24
			C14.44,51.88,14.29,51.91,14.14,51.91z"/>
	</g>
	<path class="st0" d="M75.57,54.53L59.97,49.5c-0.98-0.32-1.52-1.37-1.2-2.35l3.76-11.66c0.32-0.98,1.37-1.52,2.35-1.2l15.59,5.03
		c0.98,0.32,1.52,1.37,1.2,2.35l-3.76,11.66C77.6,54.31,76.55,54.84,75.57,54.53z"/>
	<path class="st0" d="M80.57,54.21l-1.35-0.44c-0.35-0.11-0.54-0.49-0.43-0.84l3.39-10.49c0.11-0.35,0.49-0.54,0.84-0.43l1.35,0.44
		c0.35,0.11,0.54,0.49,0.43,0.84l-3.39,10.49C81.3,54.14,80.92,54.33,80.57,54.21z"/>
	<path class="st0" d="M48.48,28.1c-3.06-2.2-6.46-6.67-7.65-8.31c-0.1-1.41-0.44-2.32-1.06-2.52c-0.09-0.03-0.17-0.04-0.27-0.04
		c-1.98,0-5.53,6.17-8.13,14.25c-2.73,8.46-3.4,15.83-1.49,16.44c0.09,0.03,0.17,0.04,0.27,0.04c0.58,0,1.29-0.54,2.08-1.49
		c15.96-3.91,24.55,0.08,24.55,0.08l3.8-11.76C51.84,31.63,52.26,30.82,48.48,28.1z M33.27,32.11c2.01-6.22,4.23-10.25,5.58-11.98
		c0.08,2.2-0.47,6.77-2.47,12.98c-2.01,6.22-4.23,10.25-5.58,11.98C30.71,42.89,31.26,38.32,33.27,32.11z M39.3,30.22
		c0-0.01,0.01-0.02,0.01-0.04l0,0.02L39.3,30.22z"/>
	<g>
		<path class="st0" d="M119.71,69.16c-3.85,3.71-9.08,5.99-14.85,5.99c-7.95,0-14.87-4.34-18.58-10.77
			c-3.25,0.13-5.22,1.35-6.95,2.13c-1.77,0.79-8.43,4.79-8.43,4.79s0.61-5.4,1.07-7.82c0.47-2.42-0.14-2.93-1.44-4
			c-1.3-1.07-3.4-1.44-3.4-1.44l1.74-3.3c0.28-0.54,0.01-1.2-0.57-1.38l-3.69-1.16c-0.48-0.15-0.99,0.07-1.2,0.52l-1.96,4.1
			c0,0-3.58,0.51-4.37,3.54c-0.76,2.94,0.55,3.48,0.27,3.58c-0.28,0.09-1.16,1.4-0.51,1.68s3.58,1.26,3.58,1.26
			s-0.28,3.91-0.33,10.33c-0.05,6.42,8.1,7.4,10.47,6.56c2.37-0.84,10.41-5.78,11.59-6.92c0.88-0.85,1.81-0.24,1.29,1.29
			C82.06,82.38,78.82,100,78.82,100h36.5c0-2.01,1.14-12.44,1.55-16.13c0.03-0.28,0.42-0.31,0.5-0.04c0.56,2.02,1.26,5.96,2,8.71
			c0.97,3.58,3.4,6.14,3.4,6.14s0-24.49,0-25.93C122.76,71.33,121.18,69.96,119.71,69.16z"/>
	</g>
	<path class="st0" d="M104.86,34.64c-10.9,0-19.74,8.84-19.74,19.74c0,10.9,8.84,19.74,19.74,19.74c10.9,0,19.74-8.84,19.74-19.74
		C124.6,43.48,115.76,34.64,104.86,34.64z M95.98,39.94l4.94,5.59h-0.58l-6.04-4.77L95.98,39.94z M98.54,45.97
		c0,0.93-0.75,1.68-1.68,1.68s-1.68-0.75-1.68-1.68s0.75-1.68,1.68-1.68S98.54,45.04,98.54,45.97z M103.56,64.15
		c-0.13,0.14-1.02,0.05-0.85-1.27c0.12-0.94-10.78-5.59-12.26-5.73c-0.76-0.07-0.76,0.24-1.27,0.54c-0.21,0.12-0.85,0.24-0.85-0.31
		c0-0.81,1.54-6.85,2.77-7.19c1.23-0.35,5.77,0.5,8.46,1.69c2.69,1.19,6.68,3.76,7.14,4.62C107.36,57.72,106.23,61.19,103.56,64.15z
		 M105.37,51c-0.93,0-1.68-0.75-1.68-1.68s0.75-1.68,1.68-1.68c0.93,0,1.68,0.75,1.68,1.68S106.3,51,105.37,51z M103.08,46.75
		l-0.45-0.38l7.38-1.08l0.77,1.71L103.08,46.75z"/>
	<polygon class="st0" points="62.44,7.37 64.26,4.46 89.69,33.25 88.33,35.07 	"/>
	<polygon class="st0" points="93.99,30.63 95.88,29.76 90.94,0 87.16,0 	"/>
	<polygon class="st0" points="103,28.82 104.86,28.82 113.98,0 110.42,0 	"/>
</g>
</svg>
