<svg xmlns="http://www.w3.org/2000/svg" width="97.579" height="97.579"><path d="M83.288 14.29a48.79 48.79 0 10-69 69 48.79 48.79 0 1069-69zM59.343 35.905a12.211 12.211 0 0117.249 0 2.904 2.904 0 11-4.107 4.107 6.4 6.4 0 00-9.036 0 2.904 2.904 0 01-4.107-4.107zm-38.357 0a12.211 12.211 0 0117.249 0 2.904 2.904 0 11-4.107 4.107 6.4 6.4 0 00-9.036 0 2.904 2.904 0 01-4.107-4.107zm27.8 46.572a28.687 28.687 0 01-28.651-28.654 2.9 2.9 0 012.9-2.9h51.5a2.9 2.9 0 012.9 2.9 28.687 28.687 0 01-28.646 28.654z" fill="#fff"/></svg>