<svg xmlns="http://www.w3.org/2000/svg" width="123.2" height="100.058"><g data-name="Group 2860"><path data-name="Path 927" d="M123.201 11.883a50.382 50.382 0 01-14.54 3.91 24.517 24.517 0 0011.1-13.914 49.563 49.563 0 01-16.026 6.1 25.311 25.311 0 00-36.313-.587 24.335 24.335 0 00-7.386 17.862 28.024 28.024 0 00.625 5.785 70.359 70.359 0 01-29.042-7.778A71.584 71.584 0 018.601 4.611a25.3 25.3 0 00-.39 24.781 25.223 25.223 0 008.209 8.989 25.053 25.053 0 01-11.419-3.205v.313a24.4 24.4 0 005.745 16.065 24.841 24.841 0 0014.5 8.716 26.161 26.161 0 01-6.645.859 32.209 32.209 0 01-4.765-.388 25.3 25.3 0 0023.608 17.511A49.439 49.439 0 016.101 89.041a53.766 53.766 0 01-6.1-.312 70.124 70.124 0 0038.774 11.334 73.772 73.772 0 0025.247-4.26 64.175 64.175 0 0020.17-11.414 76.375 76.375 0 0014.422-16.455 73.377 73.377 0 009.029-19.425 71.762 71.762 0 002.97-20.287q0-2.189-.079-3.283a52.874 52.874 0 0012.667-13.056z" fill="#fff"/></g></svg>