<svg xmlns="http://www.w3.org/2000/svg" width="22" height="22"><path d="M11 22A11 11 0 013.222 3.222a11 11 0 1115.556 15.556A10.928 10.928 0 0111 22zm-2.957-9.663a.548.548 0 00-.083.006 4.9 4.9 0 00-3.814 2.781.485.485 0 00.034.53 7.9 7.9 0 005.344 3.626c.2.038.415.063.619.087l.3.036h.926l.041-.009a.592.592 0 01.09-.016 7.519 7.519 0 001.825-.354 7.964 7.964 0 004.327-3.409.458.458 0 00.034-.511 4.96 4.96 0 00-3.547-2.723 1.2 1.2 0 00-.244-.026 1.076 1.076 0 00-.626.21 4.017 4.017 0 01-2.308.718 4.759 4.759 0 01-.7-.054 4.073 4.073 0 01-1.79-.734.71.71 0 00-.428-.158zm2.876-8.75a3.982 3.982 0 102.8 1.167 3.977 3.977 0 00-2.8-1.168z" fill="#fff"/></svg>