<svg id="Component_2_1" data-name="Component 2 – 1" xmlns="http://www.w3.org/2000/svg" width="295.521" height="77.544" viewBox="0 0 295.521 77.544">
  <path id="Path_921" data-name="Path 921" d="M0,75.245,33.959,39.8,0,4.355H16.336l25.94,26.831L68.315,4.355H84.454L50.692,39.8,84.454,75.245H67.82L42.276,48.611,16.535,75.245Z" transform="translate(0 -1.027)" fill="#fff"/>
  <path id="Path_922" data-name="Path 922" d="M359.006,38.664c0,27.108-16.2,38.88-45.036,38.88-29.052,0-45.036-11.664-45.036-38.88,0-27,16.2-38.664,45.036-38.664C343.022,0,359.006,11.448,359.006,38.664Zm-76.139,0c0,19.872,9.72,26.027,31.1,26.027,21.276,0,31.1-6.372,31.1-26.027,0-19.872-9.612-25.92-31.1-25.92C292.587,12.743,282.867,18.792,282.867,38.664Z" transform="translate(-63.485)" fill="#fff"/>
  <rect id="Rectangle_1179" data-name="Rectangle 1179" width="84.81" height="11.729" transform="translate(102.481 3.125)" fill="#fff"/>
  <rect id="Rectangle_1180" data-name="Rectangle 1180" width="84.81" height="11.729" transform="translate(102.546 32.201)" fill="#fff"/>
  <rect id="Rectangle_1181" data-name="Rectangle 1181" width="84.81" height="11.729" transform="translate(102.546 61.275)" fill="#fff"/>
</svg>
