<svg xmlns="http://www.w3.org/2000/svg" width="431.658" height="113.265"><g fill="#fff"><path d="M0 108.404l49.6-51.773L0 4.859h23.862l37.89 39.191L99.786 4.859h23.574L74.044 56.631l49.315 51.773h-24.3l-37.307-38.9-37.6 38.9zM431.658 56.475c0 39.6-23.663 56.79-65.782 56.79-42.435 0-65.782-17.037-65.782-56.79C300.093 17.037 323.758 0 365.875 0c42.435 0 65.783 16.721 65.783 56.475zm-111.214 0c0 29.026 14.2 38.017 45.432 38.017 31.077 0 45.432-9.307 45.432-38.017 0-29.026-14.04-37.86-45.432-37.86-31.235-.001-45.433 8.834-45.433 37.86zM149.691 4.565h123.88v17.133h-123.88zM149.786 47.034h123.88v17.133h-123.88zM149.786 89.504h123.88v17.133h-123.88z"/></g></svg>