<svg xmlns="http://www.w3.org/2000/svg" width="51.555" height="70.129" viewBox="0 0 51.555 70.129">
  <g id="Arcade_Icon" data-name="Arcade Icon" transform="translate(-247.248 -192.105)">
    <path id="Path_982" data-name="Path 982" d="M336.95,214.159v-.041a11.6,11.6,0,1,1,14.933-3.6,11.684,11.684,0,1,0-14.933,3.636Z" transform="translate(-69.349 0)" fill="#fff"/>
    <path id="Path_984" data-name="Path 984" d="M295.424,496.422H250.562a3.393,3.393,0,0,0-3.315,3.388v12.073a3.4,3.4,0,0,0,3.392,3.392h44.775a3.4,3.4,0,0,0,3.388-3.388V499.813A3.4,3.4,0,0,0,295.424,496.422Zm-5.76,13.8h-5.8a2.949,2.949,0,0,1,0-5.9h5.8a2.949,2.949,0,0,1,0,5.9Z" transform="translate(0 -253.041)" fill="#fff"/>
    <path id="Path_985" data-name="Path 985" d="M353.417,199.523a11.6,11.6,0,1,0-15.861,15.34v.041A11.682,11.682,0,0,0,351.933,212l.043-.052c.084-.1.164-.206.245-.311.051-.067.1-.134.151-.2s.077-.109.116-.163A11.6,11.6,0,0,0,353.417,199.523Z" transform="translate(-69.955 -0.744)" fill="#fff"/>
    <path id="Path_986" data-name="Path 986" d="M307.042,438.5c-8.1,0-15.147,3.257-18.837,8.074h37.674C322.189,441.76,315.138,438.5,307.042,438.5Z" transform="translate(-34.056 -204.881)" fill="#fff"/>
    <path id="Path_987" data-name="Path 987" d="M378.553,350.394V334.171a13.337,13.337,0,0,1-10.515-.112v16.38a31.364,31.364,0,0,1,10.515-.045Z" transform="translate(-100.437 -118.035)" fill="#fff"/>
  </g>
</svg>
