<svg xmlns="http://www.w3.org/2000/svg" width="156.086" height="146.915" viewBox="0 0 156.086 146.915">
  <g id="Group_2809" data-name="Group 2809" transform="translate(0 0.001)">
    <g id="Group_2521" data-name="Group 2521" transform="translate(0 -0.001)">
      <rect id="Rectangle_851" data-name="Rectangle 851" width="42.348" height="87.695" rx="6.892" transform="translate(0 0.754)" fill="#fff"/>
      <path id="Path_852" data-name="Path 852" d="M125.013,169.571a8.952,8.952,0,0,0-8.926,8.925v69.846c0,11.132,35.265,31.363,37.148,42.361,1.2,7.019-.394,25.029,4.455,25.029,8.246,0,18.8-3.158,18.8-21.431,0-16.117-10.549-37.035-10.549-37.035h42.713a12.173,12.173,0,0,0,2.748-24.035,12.171,12.171,0,0,0-4.864-21.365,12.168,12.168,0,0,0-4.864-21.364,12.174,12.174,0,0,0-7.607-21.686Z" transform="translate(-64.745 -168.817)" fill="#fff"/>
    </g>
  </g>
</svg>
