<svg xmlns="http://www.w3.org/2000/svg" width="156.513" height="147.317" viewBox="0 0 156.513 147.317">
  <g id="Group_2808" data-name="Group 2808" transform="translate(0 0)">
    <g id="Group_2521" data-name="Group 2521" transform="translate(0 0)">
      <rect id="Rectangle_851" data-name="Rectangle 851" width="42.464" height="87.935" rx="6.892" transform="translate(0 58.626)" fill="#fff"/>
      <path id="Path_852" data-name="Path 852" d="M125.038,315.378a8.976,8.976,0,0,1-8.951-8.949V236.392c0-11.162,35.361-31.449,37.249-42.477,1.2-7.038-.395-25.1,4.467-25.1,8.269,0,18.847,3.167,18.847,21.489,0,16.161-10.578,37.136-10.578,37.136H208.9a12.207,12.207,0,0,1,2.755,24.1,12.2,12.2,0,0,1-4.877,21.423,12.2,12.2,0,0,1-4.877,21.423,12.208,12.208,0,0,1-7.628,21.745Z" transform="translate(-64.605 -168.817)" fill="#fff"/>
    </g>
  </g>
</svg>
