<svg xmlns="http://www.w3.org/2000/svg" width="232.503" height="153.824" viewBox="0 0 232.503 153.824"><path d="M798.812,231.547H582.139a7.915,7.915,0,0,0-7.915,7.915V377.457a7.914,7.914,0,0,0,7.915,7.915H798.812a7.914,7.914,0,0,0,7.915-7.915V239.462A7.915,7.915,0,0,0,798.812,231.547Zm-187.98,140.54a1.217,1.217,0,0,1-1.217,1.217H590.21a1.217,1.217,0,0,1-1.217-1.217V352.682a1.217,1.217,0,0,1,1.217-1.217h19.405a1.217,1.217,0,0,1,1.217,1.217Zm0-35.95a1.217,1.217,0,0,1-1.217,1.217H590.21a1.217,1.217,0,0,1-1.217-1.217V316.732a1.217,1.217,0,0,1,1.217-1.217h19.405a1.217,1.217,0,0,1,1.217,1.217Zm0-35.951a1.217,1.217,0,0,1-1.217,1.217H590.21a1.217,1.217,0,0,1-1.217-1.217v-19.4a1.217,1.217,0,0,1,1.217-1.217h19.405a1.217,1.217,0,0,1,1.217,1.217Zm0-35.95a1.217,1.217,0,0,1-1.217,1.217H590.21a1.217,1.217,0,0,1-1.217-1.217V244.831a1.217,1.217,0,0,1,1.217-1.217h19.405a1.217,1.217,0,0,1,1.217,1.217ZM791.958,372.087a1.217,1.217,0,0,1-1.217,1.217H771.336a1.217,1.217,0,0,1-1.217-1.217V352.682a1.217,1.217,0,0,1,1.217-1.217h19.405a1.217,1.217,0,0,1,1.217,1.217Zm0-35.95a1.217,1.217,0,0,1-1.217,1.217H771.336a1.217,1.217,0,0,1-1.217-1.217V316.732a1.217,1.217,0,0,1,1.217-1.217h19.405a1.217,1.217,0,0,1,1.217,1.217Zm0-35.951a1.217,1.217,0,0,1-1.217,1.217H771.336a1.217,1.217,0,0,1-1.217-1.217v-19.4a1.217,1.217,0,0,1,1.217-1.217h19.405a1.217,1.217,0,0,1,1.217,1.217Zm0-35.95a1.217,1.217,0,0,1-1.217,1.217H771.336a1.217,1.217,0,0,1-1.217-1.217V244.831a1.217,1.217,0,0,1,1.217-1.217h19.405a1.217,1.217,0,0,1,1.217,1.217Z" transform="translate(-574.224 -231.547)" fill="#292a37"/></svg>