<svg xmlns="http://www.w3.org/2000/svg" width="104.052" height="113.325" viewBox="0 0 104.052 113.325"><g transform="translate(-173.881 -248.074)"><g transform="translate(173.881 248.074)"><path d="M-271.751-165.3c.1-.975.173-1.952.3-2.923a6.982,6.982,0,0,1,.3-1.057c.317-.353.651-.692.947-1.061,2.212-2.758,5.456-3.349,8.292-1.395a36.028,36.028,0,0,1,3.679,3.215c2.186,2,4.355,4.011,6.527,6.022,1.331,1.232,2.651,2.474,3.983,3.7q4.921,4.542,9.85,9.077c1.655,1.524,3.314,3.044,4.96,4.577.276.257.49.255.721-.024.45-.544.9-1.087,1.351-1.634a.56.56,0,0,0-.094-.866q-2.933-2.685-5.86-5.377-3.652-3.37-7.293-6.752-4.4-4.076-8.807-8.151c-2.283-2.123-4.547-4.266-6.827-6.392-.6-.557-1.245-1.061-1.827-1.634a32.411,32.411,0,0,1-2.785-2.908,13.84,13.84,0,0,1-1.263-2.454,11.669,11.669,0,0,1,.167-2.491,7.159,7.159,0,0,1,3.568-4.4c.269-.15.535-.306.8-.46a10.659,10.659,0,0,1,1.831-.216,7.494,7.494,0,0,1,4.9,2.227c1.519,1.449,3.058,2.877,4.6,4.3q4.68,4.32,9.373,8.625,3.46,3.189,6.907,6.392,5.247,4.883,10.484,9.778c.352.328.728.628,1.158,1l2.29-2.173c-1.169-1.114-2.243-2.166-3.347-3.185-3.1-2.865-6.224-5.711-9.328-8.574-1.738-1.6-3.451-3.233-5.183-4.842q-4.156-3.861-8.324-7.71c-.925-.855-1.877-1.683-2.789-2.552-1.5-1.428-3.157-2.739-3.732-4.881-.041-.153-.213-.27-.324-.4a1.991,1.991,0,0,0,.143-.626c-.362-3.279,3.133-6.984,6.322-6.883a7.216,7.216,0,0,1,4.673,1.959c2.174,1.946,4.271,3.98,6.408,5.967q3.621,3.368,7.256,6.721c.909.841,1.815,1.686,2.732,2.519a2.826,2.826,0,0,0,.5.3,2.507,2.507,0,0,0,.321.483q2.123,1.995,4.263,3.971c3.245,3,6.468,6.02,9.752,8.975,2.018,1.816,4.057,3.624,6.228,5.247a25.8,25.8,0,0,0,4.457,2.436,2.182,2.182,0,0,0,2.18-.024c-.246-.272-.442-.525-.674-.739-1.384-1.269-2.785-2.52-4.164-3.794-2-1.845-3.98-3.707-5.972-5.558-1.02-.948-2.049-1.885-3.07-2.831q-2.357-2.186-4.707-4.38a8.913,8.913,0,0,1-2.228-3.637c-.011-.4-.013-.8-.034-1.193-.155-2.868,3.057-6.568,6.53-6.415a6.533,6.533,0,0,1,4.161,1.709c2.6,2.34,5.127,4.753,7.694,7.126,2.534,2.342,5.087,4.664,7.62,7.009,2.907,2.691,5.789,5.408,8.7,8.092a50.408,50.408,0,0,1,6.441,6.765,39.308,39.308,0,0,1,5.286,9.612,37.74,37.74,0,0,1,2.368,16.164,37.552,37.552,0,0,1-4.321,15.144,37.854,37.854,0,0,1-8.665,10.987,34.471,34.471,0,0,1-8.2,5.475,9.927,9.927,0,0,0-1.12.7,2.377,2.377,0,0,0-.478.079c-1.094.416-2.168.893-3.277,1.26A35.84,35.84,0,0,1-208.831-96.4a49.941,49.941,0,0,1-5.59-.549,36.129,36.129,0,0,1-16.116-7.037c-2.007-1.544-3.842-3.314-5.719-5.021-2.8-2.543-5.566-5.115-8.335-7.688-1.844-1.713-3.659-3.457-5.5-5.173-2.2-2.05-4.413-4.083-6.618-6.127q-4.645-4.306-9.284-8.618c-1.474-1.37-2.906-2.787-4.424-4.107a8.391,8.391,0,0,1-2.415-3.344,8.813,8.813,0,0,0-.485-.925,1.581,1.581,0,0,0,.122-.485,5.319,5.319,0,0,1,.537-2.991,1.454,1.454,0,0,0,.076-.448,2.692,2.692,0,0,0,.366-.348,7.382,7.382,0,0,1,3.47-2.874c2.481-.868,4.613-.03,6.481,1.583,1.723,1.488,3.365,3.071,5.035,4.619q4.693,4.35,9.377,8.71c2.2,2.051,4.392,4.114,6.592,6.166a3.717,3.717,0,0,0,.516.345c.419-.835.8-1.608,1.194-2.373a.7.7,0,0,0-.187-.975c-1.836-1.662-3.642-3.359-5.46-5.041-2.273-2.1-4.556-4.195-6.823-6.3q-5.247-4.881-10.481-9.775c-1.247-1.159-2.545-2.261-3.778-3.434-1.392-1.326-2.809-2.639-4.071-4.083A12.882,12.882,0,0,1-271.751-165.3Z" transform="translate(273.317 209.668)" fill="#fff"/><path d="M81.341-271.271q0-4.152,0-8.3a3.368,3.368,0,0,1,3.4-3.414,3.4,3.4,0,0,1,3.339,3.354q.017,8.336.008,16.673a3.383,3.383,0,0,1-3.423,3.475,3.363,3.363,0,0,1-3.332-3.549c.008-2.746,0-5.491,0-8.237Z" transform="translate(-34.137 282.988)" fill="#fff"/><path d="M234.388-267.419a3.22,3.22,0,0,1,3.271,1.921,3.16,3.16,0,0,1-.385,3.445c-3.031,3.973-6.106,7.912-9.163,11.865-.3.385-.575.785-.882,1.162a3.382,3.382,0,0,1-4.59.607,3.228,3.228,0,0,1-.783-4.58c1.822-2.475,3.714-4.9,5.584-7.338,1.439-1.877,2.893-3.743,4.33-5.621A3.278,3.278,0,0,1,234.388-267.419Z" transform="translate(-155.409 269.492)" fill="#fff"/><path d="M322.311-119.021a3.427,3.427,0,0,1-3.322-2.781,3.289,3.289,0,0,1,2.006-3.715c3.167-1.187,6.354-2.321,9.535-3.474,2.055-.745,4.1-1.511,6.172-2.215a3.276,3.276,0,0,1,4.086,1.935,3.371,3.371,0,0,1-1.876,4.354c-2.831,1.072-5.688,2.078-8.533,3.115-2.16.787-4.316,1.587-6.481,2.36C323.384-119.258,322.841-119.159,322.311-119.021Z" transform="translate(-240.105 151.555)" fill="#fff"/></g></g></svg>