<svg id="Component_2_1" data-name="Component 2 – 1" xmlns="http://www.w3.org/2000/svg" xmlns:xlink="http://www.w3.org/1999/xlink" width="423" height="423" viewBox="0 0 423 423">
  <defs>
    <radialGradient id="radial-gradient" cx="0.5" cy="0.5" r="0.5" gradientUnits="objectBoundingBox">
      <stop offset="0" stop-color="#00ebff"/>
      <stop offset="1" stop-color="#000120" stop-opacity="0"/>
    </radialGradient>
  </defs>
  <circle id="Ellipse_492" data-name="Ellipse 492" cx="211.5" cy="211.5" r="211.5" fill="url(#radial-gradient)"/>
  <g id="Hand_Icon" data-name="Hand Icon" transform="translate(62.25 65.323)">
    <path id="Path_916" data-name="Path 916" d="M267.5,88.617c-.256-2.609-.463-5.224-.792-7.823a18.683,18.683,0,0,0-.8-2.83c-.848-.944-1.742-1.851-2.534-2.839-5.921-7.381-14.6-8.962-22.192-3.732-3.566,2.457-6.625,5.663-9.847,8.6-5.85,5.342-11.654,10.735-17.468,16.117-3.561,3.3-7.094,6.622-10.659,9.912q-13.171,12.156-26.36,24.293c-4.428,4.079-8.867,8.147-13.274,12.249-.738.687-1.311.683-1.93-.066-1.206-1.456-2.417-2.909-3.614-4.372a1.5,1.5,0,0,1,.25-2.317q7.851-7.186,15.682-14.391,9.774-9.019,19.518-18.07,11.785-10.907,23.569-21.813c6.109-5.681,12.17-11.416,18.271-17.106,1.6-1.491,3.333-2.84,4.888-4.373,2.56-2.524,10.851-10.587,13.065-13.4,1.5-1.9,2.28-4.359,3.382-6.567-.124-2.229.146-4.57-.448-6.666a19.158,19.158,0,0,0-9.549-11.777c-.721-.4-1.432-.82-2.148-1.23a28.559,28.559,0,0,0-4.9-.578,20.056,20.056,0,0,0-13.1,5.959c-4.064,3.878-13.8,13.312-17.924,17.123q-12.525,11.56-25.084,23.083-9.259,8.536-18.485,17.107-14.043,13.069-28.057,26.168c-.941.877-1.949,1.682-3.1,2.668l-6.129-5.815c3.128-2.982,6-5.8,8.957-8.523,8.306-7.667,16.656-15.282,24.963-22.948,4.65-4.291,9.235-8.652,13.87-12.958q11.124-10.333,22.279-20.634c2.476-2.289,5.022-4.5,7.463-6.829,4.011-3.822,8.45-7.33,9.987-13.062.11-.409.57-.724.867-1.082a5.329,5.329,0,0,1-.383-1.677C216.7,9.651,207.341-.265,198.808.005A19.309,19.309,0,0,0,186.3,5.247c-5.819,5.209-11.43,10.65-17.149,15.97q-9.691,9.014-19.42,17.986c-2.432,2.252-4.857,4.512-7.311,6.741a7.609,7.609,0,0,1-1.346.8,6.643,6.643,0,0,1-.859,1.292q-5.681,5.339-11.408,10.628c-8.685,8.022-17.311,16.111-26.1,24.02-5.4,4.86-10.857,9.7-16.666,14.042-3.6,2.689-7.833,4.579-11.927,6.52-1.658.786,20.9-34.576,21.986-50.966s-20.985-41.7-29.525-18.029S25.256,98.826,12.356,132.48s-21.05,61.731,3.443,95.778,72.273,46.876,116.32,27.274a288.422,288.422,0,0,0,77.416-50.675c5.885-5.485,11.811-10.926,17.711-16.4q12.43-11.524,24.847-23.065c3.944-3.666,7.778-7.459,11.838-10.991a22.464,22.464,0,0,0,6.464-8.948,23.543,23.543,0,0,1,1.3-2.476,4.219,4.219,0,0,1-.327-1.3,14.236,14.236,0,0,0-1.438-8,3.878,3.878,0,0,1-.2-1.2,7.222,7.222,0,0,1-.98-.932c-2.434-3.368-5.292-6.293-9.286-7.69-6.641-2.324-12.346-.081-17.346,4.236-4.612,3.982-9,8.218-13.475,12.362q-12.56,11.642-25.1,23.31c-5.892,5.488-11.753,11.01-17.643,16.5a9.943,9.943,0,0,1-1.382.924c-1.123-2.235-2.139-4.3-3.195-6.35a1.867,1.867,0,0,1,.5-2.61c4.914-4.449,9.745-8.99,14.614-13.491,6.084-5.625,12.192-11.225,18.259-16.869q14.041-13.062,28.049-26.16c3.335-3.1,6.811-6.051,10.109-9.191,3.727-3.548,7.518-7.062,10.894-10.927C265.443,93.654,266.277,90.966,267.5,88.617Z" transform="translate(50.518 40.436) rotate(11)" fill="#fff" opacity="0.3"/>
    <path id="Path_915" data-name="Path 915" d="M-5.817-109.8c-.256-2.609-.463-5.224-.792-7.823a18.689,18.689,0,0,0-.8-2.83c-.848-.944-1.742-1.851-2.534-2.839-5.921-7.381-14.6-8.962-22.192-3.732-3.566,2.457-6.625,5.663-9.847,8.6-5.85,5.342-11.654,10.735-17.468,16.117-3.561,3.3-7.094,6.622-10.659,9.912q-13.17,12.156-26.36,24.293c-4.428,4.079-8.867,8.147-13.274,12.249-.738.687-1.311.683-1.93-.066-1.206-1.456-2.417-2.909-3.614-4.372a1.5,1.5,0,0,1,.25-2.317q7.851-7.186,15.682-14.391,9.774-9.019,19.518-18.07,11.784-10.907,23.569-21.813c6.109-5.681,12.17-11.416,18.271-17.106,1.6-1.491,3.333-2.84,4.888-4.373,2.56-2.524,10.851-10.587,13.065-13.4,1.5-1.9,2.28-4.359,3.382-6.567-.124-2.229.146-4.57-.448-6.666a19.158,19.158,0,0,0-9.549-11.777c-.721-.4-1.432-.82-2.148-1.23a28.561,28.561,0,0,0-4.9-.578,20.056,20.056,0,0,0-13.1,5.959c-4.064,3.878-13.8,13.312-17.924,17.123q-12.525,11.56-25.084,23.083-9.259,8.536-18.485,17.107-14.043,13.069-28.057,26.168c-.941.877-1.949,1.682-3.1,2.668l-6.129-5.815c3.128-2.982,6-5.8,8.957-8.523,8.306-7.667,16.656-15.282,24.963-22.948,4.65-4.291,9.235-8.652,13.87-12.958q11.124-10.333,22.279-20.634c2.476-2.289,5.022-4.5,7.463-6.829,4.011-3.822,8.45-7.33,9.987-13.062.11-.409.57-.724.867-1.082a5.329,5.329,0,0,1-.383-1.677c.97-8.775-8.385-18.691-16.918-18.421a19.309,19.309,0,0,0-12.507,5.242c-5.819,5.209-11.43,10.65-17.149,15.97q-9.691,9.014-19.42,17.986c-2.432,2.252-4.857,4.512-7.311,6.741a7.608,7.608,0,0,1-1.346.8,6.643,6.643,0,0,1-.859,1.292q-5.681,5.339-11.408,10.628c-8.685,8.022-17.311,16.111-26.1,24.02-5.4,4.86-10.857,9.7-16.666,14.042-3.6,2.689-7.833,4.579-11.927,6.52-1.658.786,20.9-34.576,21.986-50.966s-20.985-41.7-29.525-18.029-41.323,64.579-54.224,98.232-21.05,61.731,3.443,95.778,72.273,46.876,116.32,27.274A288.423,288.423,0,0,0-63.783,6.444C-57.9.959-51.971-4.482-46.072-9.952q12.43-11.524,24.847-23.065c3.944-3.666,7.778-7.459,11.838-10.991a22.464,22.464,0,0,0,6.464-8.948,23.541,23.541,0,0,1,1.3-2.476,4.219,4.219,0,0,1-.327-1.3,14.236,14.236,0,0,0-1.438-8,3.879,3.879,0,0,1-.2-1.2,7.22,7.22,0,0,1-.98-.932c-2.434-3.368-5.292-6.293-9.286-7.69C-20.5-76.879-26.2-74.636-31.2-70.319c-4.612,3.982-9,8.218-13.475,12.362q-12.56,11.642-25.1,23.31c-5.892,5.488-11.753,11.01-17.643,16.5a9.944,9.944,0,0,1-1.382.924c-1.123-2.235-2.139-4.3-3.195-6.35a1.867,1.867,0,0,1,.5-2.61c4.914-4.449,9.745-8.99,14.614-13.491C-70.8-45.3-64.688-50.9-58.621-56.542Q-44.58-69.6-30.572-82.7c3.335-3.1,6.811-6.051,10.109-9.191,3.727-3.548,7.518-7.062,10.894-10.927C-7.874-104.759-7.04-107.448-5.817-109.8Z" transform="translate(277.639 254.32)" fill="#fff"/>
    <rect id="Rectangle_1109" data-name="Rectangle 1109" width="14.166" height="42.498" rx="7.083" transform="translate(120.389 2.551) rotate(-10.374)" fill="#fff" stroke="#707070" stroke-width="1"/>
    <rect id="Rectangle_1110" data-name="Rectangle 1110" width="14.166" height="35.432" rx="7.083" transform="translate(172.484 8.396) rotate(34.626)" fill="#fff" stroke="#707070" stroke-width="1"/>
    <rect id="Rectangle_1111" data-name="Rectangle 1111" width="14.166" height="35.432" rx="7.083" transform="translate(83.56 34.932) rotate(-55.374)" fill="#fff" stroke="#707070" stroke-width="1"/>
  </g>
</svg>
