<svg xmlns="http://www.w3.org/2000/svg" width="89.85" height="79.69" viewBox="0 0 89.85 79.69">
  <path id="Path_174" data-name="Path 174" d="M2787.867-330.964c2.455,2.311,4.881,4.6,7.316,6.888q7.634,7.164,15.271,14.326,5.421,5.112,10.765,10.3a2.5,2.5,0,0,1,.665,1.617q.06,12.482.023,24.964c0,2.412-1.554,4.234-3.834,4.256-6.645.065-13.291.023-20.14.023v-1.365q0-9.785,0-19.569a4.288,4.288,0,0,0-4.583-4.648q-5.519-.029-11.039,0c-2.882.017-4.628,1.831-4.626,4.745q0,9.722,0,19.444v1.319c-.514.027-.918.068-1.322.068q-9.032.008-18.064,0c-3,0-4.559-1.56-4.561-4.549,0-8.2-.014-16.391.027-24.587a2.641,2.641,0,0,1,.654-1.739q16.367-15.525,32.8-30.977C2787.4-330.608,2787.6-330.75,2787.867-330.964Z" transform="translate(-2743.377 348.265)" fill="#fff"/>
  <path id="Path_175" data-name="Path 175" d="M2794.89-362.486q5.08,4.744,10.1,9.549c2.106,2,2.317,4.5.562,6.278-1.738,1.762-4.273,1.585-6.348-.381q-18.645-17.665-37.31-35.31c-.09-.085-.2-.153-.407-.314-2.116,1.969-4.247,3.947-6.373,5.931q-10.542,9.835-21.077,19.677c-3.193,2.988-6.3,6.072-9.562,8.979a6.877,6.877,0,0,1-3.31,1.515,3.741,3.741,0,0,1-3.916-2.34,3.984,3.984,0,0,1,.922-4.6c2.963-2.826,5.964-5.614,8.958-8.407q15.539-14.495,31.086-28.981c2.3-2.147,4.395-2.138,6.694.033q8.887,8.392,17.76,16.8c.266.252.551.482,1.067.93" transform="translate(-2716.888 392.494)" fill="#fff"/>
</svg>
