<svg xmlns="http://www.w3.org/2000/svg" width="273.641" height="327.61" viewBox="0 0 273.641 327.61">
  <g id="Prizes_icon" data-name="Prizes icon" transform="translate(-24.462)" opacity="0.2">
    <path id="Path_947" data-name="Path 947" d="M180.089,194.611a4.014,4.014,0,0,0-5.275-4.079s-13.587,3.531-23.615,3.531-23.615-3.531-23.615-3.531a4.014,4.014,0,0,0-5.275,4.079v15.806a5.466,5.466,0,0,0,5.45,5.45h46.88a5.466,5.466,0,0,0,5.45-5.45Z" transform="translate(10.084 19.619)" fill="#fff"/>
    <path id="Path_948" data-name="Path 948" d="M239.1,10.9A10.9,10.9,0,0,0,228.194,0H84.288a10.9,10.9,0,0,0-10.9,10.9v89.942c0,28.152,8.373,53.778,23.577,72.156,15.3,18.5,36.357,28.688,59.279,28.688S200.216,191.5,215.52,173c15.2-18.378,23.577-44,23.577-72.156V10.9Z" transform="translate(5.041)" fill="#fff"/>
    <path id="Path_949" data-name="Path 949" d="M68.054,121.535C53.135,115.983,46.265,103.107,46.265,81.7v-48.7H66.434V11.2H35.365a10.9,10.9,0,0,0-10.9,10.9V81.7c0,36.358,17.415,58.5,49.437,63.678A132.381,132.381,0,0,1,68.054,121.535Z" transform="translate(0 1.159)" fill="#fff"/>
    <path id="Path_950" data-name="Path 950" d="M84.288,228.31a10.9,10.9,0,0,0-10.9,10.9v53.965a10.9,10.9,0,0,0,10.9,10.9H228.2a10.9,10.9,0,0,0,10.9-10.9V239.213a10.9,10.9,0,0,0-10.9-10.9Z" transform="translate(5.041 23.53)" fill="#fff"/>
    <path id="Path_951" data-name="Path 951" d="M266.254,11.2H235.183v21.8h20.169V81.7c0,21.4-6.87,34.281-21.789,39.832a132.287,132.287,0,0,1-5.845,23.846c32.022-5.173,49.437-27.32,49.437-63.678V22.1A10.9,10.9,0,0,0,266.254,11.2Z" transform="translate(20.947 1.159)" fill="#fff"/>
  </g>
</svg>