    <svg fill="#fff" height="512pt" viewBox="-16 0 512 512.00049" width="512pt" xmlns="http://www.w3.org/2000/svg"><path d="m353.769531 2.835938c-3.910156-2.820313-8.9375-3.585938-13.515625-2.0625l-177.691406 59.230468h-27.5625c-24.8125 0-45 20.1875-45 45v76.507813c-30.070312 6.128906-53.636719 30.3125-58.886719 60.691406-18.035156 5.867187-31.113281 22.832031-31.113281 42.796875 0 19.558594 12.542969 36.230469 30 42.421875v97.160156c-17.457031 6.191407-30 22.863281-30 42.417969 0 24.8125 20.1875 45 45 45h180c24.8125 0 45-20.1875 45-45 0-19.554688-12.542969-36.226562-30-42.417969v-97.160156c17.457031-6.191406 30-22.863281 30-42.421875 0-19.964844-13.078125-36.929688-31.117188-42.796875-5.246093-30.378906-28.8125-54.5625-58.882812-60.691406v-25.699219l160.253906 53.417969c1.550782.519531 3.148438.773437 4.742188.773437 3.109375 0 6.1875-.96875 8.773437-2.832031 3.910157-2.820313 6.226563-7.347656 6.226563-12.167969v-180c.003906-4.820312-2.316406-9.347656-6.226563-12.167968zm-233.769531 177.167968v-30h30v30zm0-75c0-8.273437 6.726562-15 15-15h15v30h-30zm90 224.996094v92h-150v-92zm15 152h-180c-8.269531 0-15-6.726562-15-15 0-8.269531 6.730469-15 15-15h180c8.269531 0 15 6.730469 15 15 0 8.273438-6.730469 15-15 15zm0-182h-180c-8.269531 0-15-6.726562-15-15 0-8.269531 6.730469-15 15-15h180c8.269531 0 15 6.730469 15 15 0 8.273438-6.730469 15-15 15zm-17.570312-59.996094h-144.859376c6.191407-17.460937 22.875-30 42.429688-30h60c19.554688 0 36.238281 12.539063 42.429688 30zm-27.429688-154.1875 90-30v98.375l-90-30zm150 88.375-30-10v-118.375l30-10zm0 0"/><path d="m405.011719 60.007812c2.253906 0 4.542969-.511718 6.695312-1.585937l60-30c7.410157-3.707031 10.410157-12.714844 6.707031-20.125-3.703124-7.410156-12.714843-10.414063-20.125-6.710937l-60 30c-7.410156 3.707031-10.410156 12.714843-6.707031 20.125 2.628907 5.257812 7.925781 8.296874 13.429688 8.296874zm0 0"/><path d="m404.996094 120.003906h60c8.285156 0 15-6.71875 15-15 0-8.285156-6.714844-15-15-15h-60c-8.28125 0-15 6.714844-15 15 0 8.28125 6.71875 15 15 15zm0 0"/><path d="m471.707031 181.585938-60-30c-7.40625-3.703126-16.421875-.703126-20.125 6.707031-3.703125 7.410156-.703125 16.421875 6.707031 20.125l60 30c2.152344 1.078125 4.441407 1.589843 6.695313 1.589843 5.503906 0 10.800781-3.039062 13.429687-8.296874 3.703126-7.410157.703126-16.417969-6.707031-20.125zm0 0"/></svg>