<svg xmlns="http://www.w3.org/2000/svg" width="33.543" height="34.001" viewBox="0 0 33.543 34.001"><g transform="translate(0 0)"><g transform="translate(0 0)"><path d="M34.739,3.45h-3.39V1.714a1.214,1.214,0,0,0-2.427,0V3.45H13.659V1.714a1.214,1.214,0,0,0-2.427,0V3.45H7.841A3.3,3.3,0,0,0,4.547,6.744V31.15a3.3,3.3,0,0,0,3.294,3.294h26.9a3.3,3.3,0,0,0,3.294-3.294V6.744A3.3,3.3,0,0,0,34.739,3.45ZM6.974,6.744a.867.867,0,0,1,.867-.867h3.39V7.262a1.214,1.214,0,0,0,2.427,0V5.877H28.921V7.262a1.214,1.214,0,0,0,2.427,0V5.877h3.39a.867.867,0,0,1,.867.867V9.8H6.974ZM35.606,31.15a.867.867,0,0,1-.867.867H7.841a.867.867,0,0,1-.867-.867V12.222H35.606Z" transform="translate(-4.519 -0.472)" fill="#21abfc"/><path d="M34.267,34H7.369a3.326,3.326,0,0,1-3.322-3.322V6.272A3.326,3.326,0,0,1,7.369,2.95h3.362V1.242a1.242,1.242,0,0,1,2.484,0V2.95H28.421V1.242a1.242,1.242,0,0,1,2.484,0V2.95h3.362A3.326,3.326,0,0,1,37.59,6.272V30.679A3.326,3.326,0,0,1,34.267,34ZM7.369,3.006A3.269,3.269,0,0,0,4.1,6.272V30.679a3.269,3.269,0,0,0,3.266,3.266h26.9a3.269,3.269,0,0,0,3.266-3.266V6.272a3.269,3.269,0,0,0-3.266-3.266H30.849V1.242a1.185,1.185,0,0,0-2.371,0V3.006H13.159V1.242a1.185,1.185,0,0,0-2.371,0V3.006Zm26.9,28.567H7.369a.9.9,0,0,1-.9-.9V11.722H35.162V30.679A.9.9,0,0,1,34.267,31.574ZM6.531,11.779v18.9a.84.84,0,0,0,.839.839h26.9a.84.84,0,0,0,.839-.839v-18.9ZM35.162,9.352H6.474V6.272a.9.9,0,0,1,.9-.9h3.419V6.79a1.185,1.185,0,0,0,2.371,0V5.377H28.478V6.79a1.185,1.185,0,0,0,2.371,0V5.377h3.419a.9.9,0,0,1,.9.9ZM6.531,9.3H35.106V6.272a.84.84,0,0,0-.839-.839H30.905V6.79a1.242,1.242,0,0,1-2.484,0V5.434H13.215V6.79a1.242,1.242,0,0,1-2.484,0V5.434H7.369a.839.839,0,0,0-.839.839Z" transform="translate(-4.047)" fill="#21abfc"/></g></g></svg>