<svg xmlns="http://www.w3.org/2000/svg" width="40.57" height="40.613" viewBox="0 0 40.57 40.613"><g transform="translate(-783.764 -358.451)" opacity="0.5"><g transform="translate(783.764 358.451)"><path d="M799.3,396.733c-.869.26-1.691.515-2.52.751a4.162,4.162,0,0,1-5.312-2.893q-2.442-8.157-4.859-16.322-1.3-4.353-2.594-8.7a4.2,4.2,0,0,1,3.051-5.671q8.8-2.63,17.614-5.244a4.233,4.233,0,0,1,5.411,2.914c.37,1.225.742,2.449,1.084,3.682a.544.544,0,0,0,.634.473c3.393-.015,6.787-.009,10.18-.009a2.076,2.076,0,0,1,2.342,2.326q0,14.272,0,28.544c0,1.723-.749,2.478-2.47,2.48q-9.99.007-19.981,0C800.2,399.064,799.535,398.479,799.3,396.733Zm6.741-34.135-18.136,5.393,7.592,25.522c1.134-.341,2.178-.69,3.241-.958.505-.127.622-.356.62-.851q-.025-11.779-.011-23.558c0-1.686.754-2.432,2.452-2.434q2.274,0,4.548,0c.189,0,.378-.017.619-.028Z" transform="translate(-783.764 -358.451)" fill="#fff"/></g></g></svg>