<svg xmlns="http://www.w3.org/2000/svg" width="70.173" height="47" viewBox="0 0 70.173 47"><g transform="translate(-286.435 53.065)"><g transform="translate(286.435 -53.065)"><path d="M309.865-6.065c-12.127-.03-22.455-9.481-23.357-21.369a23.5,23.5,0,0,1,19.785-25.344A23.521,23.521,0,0,1,332.02-37.6a4.867,4.867,0,0,1-2.377,6.392c-2.788,1.506-5.666,2.851-8.41,4.43a16.435,16.435,0,0,0-3.444,2.815,3.272,3.272,0,0,0-.582,4.061,12.342,12.342,0,0,0,2.723,3.328,5.1,5.1,0,0,1,2.122,4.78,4.64,4.64,0,0,1-3.1,3.936A23.344,23.344,0,0,1,309.865-6.065ZM295.25-19.8a3.8,3.8,0,0,0,3.811-3.756,4.185,4.185,0,0,0-3.8-4,4.16,4.16,0,0,0-3.811,3.986A3.8,3.8,0,0,0,295.25-19.8Zm.071-19.7a4.023,4.023,0,0,0-3.912,4.116c-.052,1.671,1.988,3.473,3.922,3.466s3.869-1.677,3.877-3.359A3.969,3.969,0,0,0,295.321-39.5ZM307.6-14.968a3.877,3.877,0,0,0-3.8-3.793,3.851,3.851,0,0,0-3.821,3.874,3.873,3.873,0,0,0,3.845,3.744A3.891,3.891,0,0,0,307.6-14.968Zm-7.433-29.293a3.834,3.834,0,0,0,3.765,3.834,3.841,3.841,0,0,0,3.808-3.8,3.8,3.8,0,0,0-3.772-3.812A3.784,3.784,0,0,0,300.169-44.261Zm19.691.052a3.809,3.809,0,0,0-3.813-3.778,3.811,3.811,0,0,0-3.74,3.849,3.79,3.79,0,0,0,3.811,3.771A3.794,3.794,0,0,0,319.86-44.21Z" transform="translate(-286.435 53.065)" fill="#fff"/><path d="M495.339-19.285c-2.539.014-4.266-1.949-3.6-3.793a30.557,30.557,0,0,1,2.879-5.773c4.829-7.7,11.241-13.991,18.08-19.88.227-.2.439-.508.695-.551.571-.1,1.311-.276,1.7-.011a1.794,1.794,0,0,1,.369,1.563,12.666,12.666,0,0,1-1.039,2.356,91.127,91.127,0,0,1-9.671,16.562c-2.154,2.8-4.554,5.415-6.97,8A9.518,9.518,0,0,1,495.339-19.285Z" transform="translate(-445.336 50.251)" fill="#fff"/><path d="M455.821,91.634c1.595-1.646,1.757-3.595,1.876-5.548.113-1.868.072-3.753.3-5.606a4.251,4.251,0,0,1,4.038-4.131,6.259,6.259,0,0,0,4.616,3.814C466.251,87.008,462.512,91.256,455.821,91.634Z" transform="translate(-417.627 -47.169)" fill="#fff"/></g></g></svg>