<svg xmlns="http://www.w3.org/2000/svg" width="25.93" height="28.861" viewBox="0 0 25.93 28.861"><g transform="translate(0)"><path d="M-867.466,142.448l3.03.834c.193-.334.413-.72.638-1.1a.934.934,0,0,1,1.452-.382c.4.227.8.452,1.193.689a.9.9,0,0,1,.347,1.318c-.228.41-.466.814-.716,1.249.091.079.175.155.262.228a12.764,12.764,0,0,1,4.757,10.657,12.947,12.947,0,0,1-10.578,12.117,12.952,12.952,0,0,1-14.757-8.917,12.972,12.972,0,0,1,9.626-16.487,8.971,8.971,0,0,1,1.072-.182c.234-.022.276-.122.272-.325-.011-.566-.007-1.133-.005-1.7a.922.922,0,0,1,1.023-1.035c.47,0,.941-.009,1.411,0a.912.912,0,0,1,.973.992C-867.461,141.1-867.466,141.79-867.466,142.448Zm7.8,12.858a9.8,9.8,0,0,0-9.762-9.778,9.8,9.8,0,0,0-9.818,9.822,9.8,9.8,0,0,0,9.829,9.747A9.8,9.8,0,0,0-859.661,155.306Z" transform="translate(882.424 -139.404)" fill="#fff"/><path d="M-709.781,305.615a2.044,2.044,0,0,1-2.048-2.052,1.981,1.981,0,0,1,2.04-2,.93.93,0,0,0,.947-.471c.7-.927,1.42-1.836,2.133-2.752.059-.076.117-.155.181-.227a.9.9,0,0,1,1.246-.131.9.9,0,0,1,.134,1.222c-.291.4-.6.782-.909,1.172-.562.721-1.119,1.445-1.688,2.16a.438.438,0,0,0-.09.461A2.021,2.021,0,0,1-709.781,305.615Z" transform="translate(722.742 -287.656)" fill="#fff"/></g></svg>