<svg xmlns="http://www.w3.org/2000/svg" width="23.172" height="23.044" viewBox="0 0 23.172 23.044"><g transform="translate(0)"><path d="M480.069,318.18l-11.875,11.879-4.661-4.652,11.885-11.879Z" transform="translate(-461.125 -309.613)" fill="#fff"/><path d="M810.394,213.125c.66-.676,1.322-1.382,2.015-2.056a2.038,2.038,0,0,1,2.8-.007c.753.722,1.5,1.449,2.211,2.216a1.511,1.511,0,0,1-.016,2.174c-.763.809-1.575,1.572-2.349,2.339Z" transform="translate(-794.706 -210.505)" fill="#fff"/><path d="M403.237,665.961l-2.1.51q-1.493.362-2.986.724c-.527.127-.843-.186-.726-.716q.567-2.556,1.136-5.11c.006-.029.017-.057.019-.066Z" transform="translate(-397.4 -644.179)" fill="#fff"/></g></svg>