<svg xmlns="http://www.w3.org/2000/svg" width="13.547" height="13.55" viewBox="0 0 13.547 13.55"><g transform="translate(-199.427 -290.396)"><g transform="translate(199.427 290.396)"><path d="M206.185,303.945c-1.457,0-2.914,0-4.37,0a2.389,2.389,0,0,1-2.291-1.767,2.538,2.538,0,0,1-.091-.646q-.009-4.363,0-8.725a2.4,2.4,0,0,1,2.41-2.405c1.439-.006,2.879,0,4.318,0a.485.485,0,1,1-.006.966h-4.215A1.455,1.455,0,0,0,200.4,292.9q0,4.268,0,8.535a1.452,1.452,0,0,0,1.536,1.541h8.533A1.455,1.455,0,0,0,212,301.44q0-2.116,0-4.233a.482.482,0,0,1,.252-.458.45.45,0,0,1,.491.018.5.5,0,0,1,.226.457c0,.743,0,1.486,0,2.229,0,.68,0,1.359,0,2.039a2.417,2.417,0,0,1-2.452,2.454c-.726,0-1.451,0-2.177,0Z" transform="translate(-199.427 -290.396)" fill="#21abfc"/><path d="M296.1,291.388h-.239c-.651,0-1.3,0-1.952,0a.485.485,0,1,1,0-.967q1.658,0,3.316,0a.477.477,0,0,1,.518.516q0,1.659,0,3.317a.485.485,0,1,1-.967,0c0-.656,0-1.313,0-1.969v-.165l-.047-.029c-.233.243-.462.49-.7.728q-2.33,2.335-4.663,4.667a.5.5,0,0,1-.591.15.445.445,0,0,1-.28-.469.675.675,0,0,1,.169-.344q2.3-2.309,4.6-4.607C295.524,291.953,295.79,291.691,296.1,291.388Z" transform="translate(-284.192 -290.418)" fill="#21abfc"/></g></g></svg>