<svg xmlns="http://www.w3.org/2000/svg" width="15.567" height="15.07" viewBox="0 0 15.567 15.07"><path d="M698.98,298.865a.6.6,0,0,1,.845,0,6.312,6.312,0,1,0,.48-9.348l1,1a.537.537,0,0,1,.115.577c0,.115-.077.191-.173.287a.388.388,0,0,1-.249.135l-3.936,1.056a.542.542,0,0,1-.595-.135.531.531,0,0,1-.154-.614l1.056-3.936a.7.7,0,0,1,.115-.269l.038-.038a.568.568,0,0,1,.269-.115.586.586,0,0,1,.615.153l1.017,1.017a7.546,7.546,0,1,1-.441,11.076.6.6,0,0,1,0-.844Z" transform="translate(-696.265 -286.861)" fill="#fff" fill-rule="evenodd"/></svg>