<svg xmlns="http://www.w3.org/2000/svg" viewBox="0 0 1000 1000" fill="#fff"><path d="M172.1 115.5C172.1 57.2 219.3 10 277.5 10 335.8 10 383 57.2 383 115.5S335.8 221 277.5 221c-58.2-.1-105.4-47.3-105.4-105.5zm227.8-16.3l307.8-54.3-24.9 268.5-114.4-47.9-5.5 59.2-51.4-22.9c-33.3 48.8-92.8 71.4-151.7 71.4-20.8 0-41.5-2.9-60.9-8.3l-39 182.1c-6 27.8-25.5 45.6-48.5 54.8l-.2 332.4c0 30.8-25 55.8-55.8 55.8-30.8 0-55.8-25-55.8-55.9l.2-351.3c-22-18.7-35.6-46-29.1-76.4l48.8-227.6c9.1-42.4 52.1-62.8 88.6-63.8h.3s12.9.1 24 2.2c11.6 2.2 21.8 7.8 21.8 7.8 22.1 10.7 43.5 30.9 52.1 55.9C351 300.5 419 294 444.6 254.7c.5-.8 1.2-1.5 1.8-2.2l3.4-36.6-58.5-24.5 8.6-92.2zm77 137.1c8.3-.4 16.8 1.6 24.3 6.5 11 7.2 17.3 18.8 18.3 31l18.3 8.2 2.6-28.1-62.7-26.3-.8 8.7zm241.2 59.3l146.2 94.3 12.1-18.8-146.2-94.3-12.1 18.8zM910.6 43.3l-5.1-21.7-169.4 39.6 5.1 21.7 169.4-39.6zM739.3 173.7L738 196l191.7 11.2 1.3-22.3-191.7-11.2z"/></svg>