<svg xmlns="http://www.w3.org/2000/svg" width="15.451" height="18.6" viewBox="0 0 15.451 18.6"><g transform="translate(-1030 -230)"><g transform="translate(1030 230)" fill="none"><path d="M6.5,0a6.5,6.5,0,0,1,0,13,7.138,7.138,0,0,1-1.7-.224A6.415,6.415,0,0,1,0,6.5,6.5,6.5,0,0,1,6.5,0Z" stroke="none"/><path d="M 6.5 2 C 4.01869010925293 2 2 4.01869010925293 2 6.5 C 2 7.528830051422119 2.351679801940918 8.542389869689941 2.990269660949707 9.353950500488281 C 3.591429710388184 10.11795043945313 4.384880065917969 10.63896942138672 5.224470138549805 10.82102966308594 L 5.236430168151855 10.8236198425293 L 5.248350143432617 10.82635974884033 C 5.877870082855225 10.97095012664795 6.193990230560303 11 6.5 11 C 8.98130989074707 11 11 8.98130989074707 11 6.5 C 11 4.01869010925293 8.98130989074707 2 6.5 2 M 6.5 0 C 10.0898494720459 0 13 2.910149574279785 13 6.5 C 13 10.0898494720459 10.0898494720459 13 6.5 13 C 6.018959999084473 13 5.550119876861572 12.94775009155273 4.800629615783691 12.77560043334961 C 2.182479858398438 12.20787048339844 0 9.608810424804688 0 6.5 C 0 2.910149574279785 2.910149574279785 0 6.5 0 Z" stroke="none" fill="#21abfc"/></g><line x2="5.023" y2="6.698" transform="translate(1039.628 241.302)" fill="none" stroke="#21abfc" stroke-width="2"/></g></svg>