<svg xmlns="http://www.w3.org/2000/svg" width="35.792" height="35.8" viewBox="0 0 35.792 35.8"><path d="M-717.069,237.275l-2.3-.007a14.311,14.311,0,0,0-2.216-5.378l1.64-1.633a1.516,1.516,0,0,0,.007-2.142l-1.647-1.655a1.516,1.516,0,0,0-2.142-.007l-1.64,1.633a14.221,14.221,0,0,0-5.371-2.246l.007-2.3a1.51,1.51,0,0,0-1.507-1.515l-2.334-.007a1.51,1.51,0,0,0-1.514,1.507l-.008,2.29a14.335,14.335,0,0,0-5.415,2.209l-1.6-1.611a1.523,1.523,0,0,0-2.142-.007l-1.655,1.647a1.516,1.516,0,0,0-.007,2.142l1.6,1.6a14.28,14.28,0,0,0-2.275,5.408l-2.238-.007a1.51,1.51,0,0,0-1.514,1.507l-.007,2.334a1.51,1.51,0,0,0,1.507,1.514l2.224.007A14.309,14.309,0,0,0-745.4,248l-1.574,1.566a1.516,1.516,0,0,0-.007,2.142l1.648,1.655a1.516,1.516,0,0,0,2.142.007l1.574-1.566a14.3,14.3,0,0,0,5.437,2.261l-.007,2.223a1.51,1.51,0,0,0,1.507,1.514l2.334.007a1.51,1.51,0,0,0,1.515-1.507l.007-2.238a14.328,14.328,0,0,0,5.422-2.246l1.588,1.6a1.516,1.516,0,0,0,2.142.007l1.655-1.647a1.516,1.516,0,0,0,.007-2.142l-1.6-1.611a14.15,14.15,0,0,0,2.231-5.4l2.29.007a1.51,1.51,0,0,0,1.514-1.507l.007-2.334A1.494,1.494,0,0,0-717.069,237.275Zm-16.393,12.4a9.878,9.878,0,0,1-8.858-5.648,9.4,9.4,0,0,1-.908-4.118,9.767,9.767,0,0,1,9.766-9.766,9.767,9.767,0,0,1,9.766,9.766A9.767,9.767,0,0,1-733.461,249.679Z" transform="translate(751.361 -222.013)" fill="#fff"/></svg>