<svg version="1.0" xmlns="http://www.w3.org/2000/svg" width="1706.667" height="1438.667" viewBox="0 0 1280 1079"><g fill="#fff"><path d="M710 6c-3.6 3.1-52.8 45.3-109.5 93.6-56.6 48.3-135.1 115.2-174.2 148.6L355 309H201.7c-99.6 0-155.3.4-158.8 1C23.6 313.7 5 331.6 1 350.6c-.7 3.3-1 64.4-.8 189.9.3 177.3.4 185.2 2.2 189.9 4.6 12.5 15 24.3 26.5 30.5 12.2 6.5 2.3 6.1 169.8 6.1H351l125.3 106.7c68.8 58.7 151.2 128.9 182.9 156 31.8 27 58 48.8 58.3 48.3 1.2-1.9 3.4-17.8 4.4-31.5 7.9-104.5 8.9-527.1 2.1-866.5-1.9-94.4-4.9-173-6.8-177.9C716.6.5 715.7.9 710 6zM1084.7 69c-9.8 10.9-17.7 20-17.7 20.2 0 .2 5.5 6 12.3 12.9 27 27.3 50.5 61.6 72.6 105.9 65.2 131.1 89 297.9 64 448.5-15.8 95.4-48.1 181.1-99.2 263.1-10.1 16.3-30.1 45.2-37.4 54l-3.3 4.1 21.7 16.3 21.7 16.3 2.2-2.6c4.2-4.9 24.2-33.2 33.6-47.7 22.9-35.1 41.9-70 58.3-106.9 58.7-132.5 78.9-279 58.9-428.1-18.8-141-72.8-271.4-145.5-351.7-6.1-6.8-14.1-14.9-17.8-18.2l-6.8-6-17.6 19.9z"/><path d="M973 199.6c-9.1 10.2-16.9 19.1-17.4 19.7-.5.9 1.8 3.8 7.4 9.2 72 69.8 112.3 229.9 96.5 383.5-10.6 103.2-45.5 189-96.9 238.9-4.2 4.1-7.5 7.7-7.4 8.2.4 1.1 34.9 38.9 35.5 38.9 1.4 0 11.8-9.9 20.5-19.5C1079.1 803.6 1117 684.1 1117 545c0-135.8-36.8-261.5-98.4-336-8.5-10.3-26.2-28-27.9-27.9-.7 0-8.6 8.4-17.7 18.5zM818.9 305.7l-19.6 17.6 9.1 10.7c61.6 72.2 83.8 167.5 62.7 269.1-10.6 50.7-32 100.4-62.7 145.6l-8.3 12.2 19.7 13.9c10.8 7.6 20.8 14.6 22.1 15.5 2.9 1.9 2.2 2.6 13.8-14.8 37.4-56.2 62.4-119.2 72.2-181.5 3.9-25.1 4.6-34.3 4.6-63.5 0-29.5-.8-39.9-4.6-63.3-9.7-59-34.7-114.9-71.6-160.5-8.3-10.3-16.1-18.7-17.1-18.7-.4.1-9.5 8-20.3 17.7z"/></g></svg>