<svg xmlns="http://www.w3.org/2000/svg" width="32.129" height="32.477" viewBox="0 0 32.129 32.477"><g transform="translate(0 0)"><path d="M29.06,8.052a.984.984,0,0,0,1.372.205l3.228-2.4a.984.984,0,0,0,.205-1.372l-.013-.02a.984.984,0,0,0-1.372-.206l-3.228,2.4a.984.984,0,0,0-.205,1.372Z" transform="translate(-4.239 -0.598)" fill="#fff"/><path d="M29.708.183A.98.98,0,0,0,28.3.468L26.149,3.954a.981.981,0,0,0,1.67,1.028L29.974,1.5A.982.982,0,0,0,29.708.183Z" transform="translate(-3.82 0)" fill="#fff"/><path d="M31.951,12.185l3.964-1.06a.982.982,0,0,0-.51-1.9l-3.964,1.061a.98.98,0,0,0-.676,1.266.994.994,0,0,0,1.186.63Z" transform="translate(-4.512 -1.351)" fill="#fff"/><path d="M13.811,1.924A1.114,1.114,0,0,0,13.434,3.5c-.848,4.872-4.208,8.988-6.382,11.221a1.491,1.491,0,0,0-1.79,0L2.067,17.1a4.106,4.106,0,0,0-.848,5.746L.96,22.491l-.616.457a.841.841,0,0,0-.172,1.186l1.9,2.552a.848.848,0,0,0,1.193.172l.616-.457-.351-.478a4.108,4.108,0,0,0,4.918,1.319l6.462,5.369a.51.51,0,0,0,.643.027l.225-.166,2.472-1.836,1.021-.756a.465.465,0,0,0,.02-.729l-1.365-1.133a.657.657,0,0,0-.815-.02,1.622,1.622,0,0,1-2-.046l-3.533-2.883.895-.669a1.5,1.5,0,0,0,.51-1.717c2.764-1.438,7.675-3.473,12.58-2.877a1.116,1.116,0,0,0,1.624.093,1.16,1.16,0,0,0,.093-1.524l-3.9-5.243a3.768,3.768,0,0,0-4.209-5.667l-3.864-5.2a1.189,1.189,0,0,0-1.5-.345Zm-6.151,22.7a1.419,1.419,0,0,1-1.988-.292l-2.3-3.1a1.419,1.419,0,0,1,.292-1.988l2.247-1.67,4,5.376Z" transform="translate(0 -0.263)" fill="#fff"/></g></svg>