<svg xmlns="http://www.w3.org/2000/svg" width="22.843" height="22.841" viewBox="0 0 22.843 22.841"><g transform="translate(5.139 5.143)"><path d="M141.26,1.842l-.795-.7a4.483,4.483,0,0,0-6.327.38l-2.275,2.566a1.407,1.407,0,0,0,.119,1.983l.214.189a1.4,1.4,0,0,0,1.983-.119l2.275-2.566a1.39,1.39,0,0,1,1.959-.118l.794.7a1.388,1.388,0,0,1,.118,1.958l-4.974,5.611a1.385,1.385,0,0,1-1.675.312,1.518,1.518,0,0,0-1.834.342l-.039.044a1.519,1.519,0,0,0,.433,2.354,4.476,4.476,0,0,0,5.431-1l4.974-5.611A4.488,4.488,0,0,0,141.26,1.842Z" transform="translate(-125.063 -5.154)" fill="#00ceff"/><path d="M10.785,103.184l-.214-.19a1.407,1.407,0,0,0-1.983.12l-2.274,2.566a1.39,1.39,0,0,1-1.958.119l-.8-.705a1.387,1.387,0,0,1-.118-1.958l4.974-5.611a1.39,1.39,0,0,1,1.65-.324,1.6,1.6,0,0,0,1.9-.375l.018-.02a1.5,1.5,0,0,0-.414-2.312,4.466,4.466,0,0,0-5.468.979l-4.974,5.61h0a4.488,4.488,0,0,0,.38,6.327l.795.7a4.488,4.488,0,0,0,6.328-.381l2.274-2.566A1.4,1.4,0,0,0,10.785,103.184Z" transform="translate(-5.14 -91.542)" fill="#00ceff"/></g></svg>