<svg xmlns="http://www.w3.org/2000/svg" width="22.3355" height="24.9894" viewBox="0 0 22.3355 24.9894"><g style="isolation:isolate"><g style="isolation:isolate"><path d="M.0361,0H22.2994l.0361,7.4564H21.27q-.5236-4.0006-2.9973-5.4132a9.2235,9.2235,0,0,0-4.153-.8515V20.6711a3.761,3.761,0,0,0,.7135,2.7109,4.5793,4.5793,0,0,0,2.97.6685v.9389H4.6224v-.9389a4.3462,4.3462,0,0,0,2.88-.6774,3.7688,3.7688,0,0,0,.713-2.702V1.1917a9.4612,9.4612,0,0,0-4.153.8515Q1.4084,3.4913,1.0653,7.4564H0Z" fill="#fff"/></g></g></svg>