<svg xmlns="http://www.w3.org/2000/svg" width="20.456" height="26.1" viewBox="0 0 20.456 26.1"><g transform="translate(0 0)"><g transform="translate(0 0)"><path d="M-660.362,459.736h18.38c-.058.616-.112,1.21-.17,1.8q-.349,3.544-.7,7.088-.347,3.484-.7,6.968c-.122,1.221-.269,2.44-.354,3.663a2.149,2.149,0,0,1-2.2,1.935h-8.444c-.569,0-1.138,0-1.707,0a2.1,2.1,0,0,1-2.181-1.947c-.246-2.371-.472-4.745-.707-7.117q-.346-3.484-.7-6.968-.258-2.606-.506-5.212C-660.354,459.888-660.356,459.829-660.362,459.736Zm12.241,16.389a.9.9,0,0,0,.877.974,1.034,1.034,0,0,0,1.173-.894c.03-.288.051-.576.075-.865q.257-3.086.514-6.172c.147-1.759.29-3.519.445-5.278a.923.923,0,0,0-.807-1.091,1,1,0,0,0-1.241.855c-.039.327-.051.656-.078.984q-.254,3.056-.51,6.113C-647.82,472.521-647.968,474.29-648.121,476.125Zm-9.179-12.107c.036.444.066.832.1,1.219q.227,2.729.456,5.457c.155,1.849.306,3.7.476,5.546a1.013,1.013,0,0,0,.247.524.961.961,0,0,0,1.117.249,1.084,1.084,0,0,0,.662-1.077c-.055-.766-.127-1.531-.191-2.3q-.228-2.714-.454-5.427c-.123-1.481-.238-2.963-.37-4.443a1.084,1.084,0,0,0-1.163-.973,1,1,0,0,0-.877,1.039C-657.3,463.914-657.3,463.994-657.3,464.018Zm5.1,5.916c0,2.055,0,4.111,0,6.166a.959.959,0,0,0,1.03,1,.954.954,0,0,0,1.005-1q.006-6.151,0-12.3a.948.948,0,0,0-1.043-1.01.953.953,0,0,0-.992,1.034Q-652.2,466.88-652.2,469.934Z" transform="translate(661.4 -455.094)" fill="#fff"/><path d="M-677.679,377.039a11.445,11.445,0,0,1,.007-1.153.94.94,0,0,1,1.058-.872c1.377,0,2.754,0,4.131,0h1.823c.19-.309.29-.646.515-.794a1.822,1.822,0,0,1,.93-.218c1.207-.023,2.414-.01,3.622-.009.769,0,1.062.241,1.22,1.022h5.942c.827,0,1.188.353,1.195,1.179,0,.277,0,.553,0,.849Z" transform="translate(677.691 -373.985)" fill="#fff"/></g></g></svg>