<svg xmlns="http://www.w3.org/2000/svg" width="104.15" height="125.295" viewBox="0 0 104.15 125.295"><g transform="translate(0 0)"><path d="M266.035,614.369a6.5,6.5,0,0,1-4.451-4.453c-.086-.318-.8-.567-1.256-.669a7.005,7.005,0,0,1-5.556-7.012h24.864c.484,2.928-2.04,6.289-5.327,6.963a1.82,1.82,0,0,0-1.655,1.4c-.629,2.039-2.289,3.054-4.171,3.769Z" transform="translate(-215.183 -489.074)" fill="#fff"/><path d="M226.951,313.887H199.433c-.031-.322-.084-.632-.085-.942a42.923,42.923,0,0,1,.031-4.891,10.821,10.821,0,0,0-2.335-7.936c-2.761-3.734-5.364-7.584-8.092-11.343a30.01,30.01,0,1,1,52.975-26.451c2.871,9.437,1.33,18.265-4.317,26.373q-5.028,7.219-9.971,14.5a4.428,4.428,0,0,0-.656,2.253C226.9,308.213,226.951,310.983,226.951,313.887Z" transform="translate(-161.181 -216.52)" fill="#fff"/><path d="M261.894,563.474c-3.584,0-7.168.005-10.752,0a3.134,3.134,0,1,1-.168-6.253q10.935-.068,21.87,0a3.109,3.109,0,0,1,3.293,3.3c-.065,1.763-1.459,2.948-3.49,2.954-1.792.006-3.584,0-5.376,0Z" transform="translate(-209.862 -455.07)" fill="#fff"/><path d="M110.911,289.738a4.171,4.171,0,0,1-5.5,3.994c-3.076-.9-6.127-1.911-9.148-2.986a4.083,4.083,0,0,1-2.656-5.283,4.134,4.134,0,0,1,5.324-2.585c3.028.926,6.038,1.915,9.037,2.935A4.1,4.1,0,0,1,110.911,289.738Z" transform="translate(-93.359 -247.862)" fill="#fff"/><path d="M178.289,195.885a4.21,4.21,0,0,1-3.832-1.634c-1.954-2.65-3.917-5.3-5.774-8.015a4.046,4.046,0,0,1,.962-5.643,3.984,3.984,0,0,1,5.667.732c2.071,2.662,4.041,5.406,5.967,8.175a4.154,4.154,0,0,1-2.99,6.386Z" transform="translate(-149.641 -170.172)" fill="#fff"/><path d="M390.189,195.846a4.054,4.054,0,0,1-3.555-6.091,105.8,105.8,0,0,1,6.3-8.683,3.925,3.925,0,0,1,5.5-.522A4.033,4.033,0,0,1,399.488,186c-1.944,2.856-4.02,5.625-6.089,8.394A3.693,3.693,0,0,1,390.189,195.846Z" transform="translate(-314.262 -170.124)" fill="#fff"/><path d="M450.665,293.728a4.26,4.26,0,0,1-4.161-3.352,3.944,3.944,0,0,1,2.211-4.469c3.468-1.268,6.985-2.426,10.54-3.425,1.932-.543,3.976.976,4.539,3a4,4,0,0,1-2.481,4.95c-3.132,1.13-6.317,2.114-9.486,3.139A6.189,6.189,0,0,1,450.665,293.728Z" transform="translate(-359.834 -247.643)" fill="#fff"/><path d="M97.642,408.447a4.164,4.164,0,0,1-4.211-3.325,3.856,3.856,0,0,1,2.174-4.461c3.463-1.279,6.983-2.432,10.54-3.423,1.982-.552,4.021.992,4.6,3.095a4.012,4.012,0,0,1-2.5,4.845c-3.135,1.121-6.321,2.1-9.493,3.118A5.723,5.723,0,0,1,97.642,408.447Z" transform="translate(-93.326 -334.259)" fill="#fff"/><path d="M459.334,408.647c-.279-.066-.883-.166-1.459-.35-2.709-.862-5.41-1.745-8.113-2.624-2.51-.816-3.791-2.991-3.1-5.261a4.146,4.146,0,0,1,5.533-2.746c3.024.941,6.044,1.9,9.03,2.956a4.071,4.071,0,0,1,2.72,4.632A4.247,4.247,0,0,1,459.334,408.647Z" transform="translate(-359.879 -334.476)" fill="#fff"/><path d="M288.73,149.722c0-1.629-.027-3.259,0-4.887a4.146,4.146,0,0,1,8.29-.037q.059,4.948.009,9.9a4.148,4.148,0,0,1-8.293.037C288.695,153.063,288.732,151.392,288.73,149.722Z" transform="translate(-240.806 -140.745)" fill="#fff"/></g></svg>