<svg xmlns="http://www.w3.org/2000/svg" width="93.622" height="88.729" viewBox="0 0 93.622 88.729"><g transform="translate(0 0)"><path d="M1777.082,382.324h-9.646a1.781,1.781,0,0,0-1.78,1.78v18.674a1.78,1.78,0,0,1-1.78,1.78h-63.646a1.781,1.781,0,0,1-1.781-1.78V384.1a1.78,1.78,0,0,0-1.78-1.78h-9.646a1.781,1.781,0,0,0-1.781,1.78v31.881a1.781,1.781,0,0,0,1.781,1.78h90.06a1.781,1.781,0,0,0,1.781-1.78V384.1A1.781,1.781,0,0,0,1777.082,382.324Z" transform="translate(-1685.241 -329.038)" fill="#fff"/><path d="M1867.682,25.419h13.05v28.22a1.781,1.781,0,0,0,1.781,1.78h17.5a1.78,1.78,0,0,0,1.78-1.78V25.419h13.051a1.78,1.78,0,0,0,1.326-2.969L1892.591-3.857a1.78,1.78,0,0,0-2.651,0L1866.357,22.45A1.78,1.78,0,0,0,1867.682,25.419Z" transform="translate(-1844.454 4.449)" fill="#fff"/></g></svg>