<svg xmlns="http://www.w3.org/2000/svg" width="22" height="22" viewBox="0 0 22 22"><path d="M11,22A11,11,0,0,1,3.222,3.222,11,11,0,1,1,18.778,18.778,10.928,10.928,0,0,1,11,22ZM8.043,12.337a.548.548,0,0,0-.083.006,4.9,4.9,0,0,0-3.814,2.781.485.485,0,0,0,.034.53,7.9,7.9,0,0,0,5.344,3.626c.2.038.415.063.619.087.1.012.2.023.3.036h.926l.041-.009a.592.592,0,0,1,.09-.016,7.519,7.519,0,0,0,1.825-.354,7.964,7.964,0,0,0,4.327-3.409.458.458,0,0,0,.034-.511,4.96,4.96,0,0,0-3.547-2.723,1.2,1.2,0,0,0-.244-.026,1.076,1.076,0,0,0-.626.21,4.017,4.017,0,0,1-2.308.718,4.759,4.759,0,0,1-.7-.054,4.073,4.073,0,0,1-1.79-.734A.71.71,0,0,0,8.043,12.337Zm2.876-8.75a3.982,3.982,0,1,0,2.8,1.167A3.977,3.977,0,0,0,10.919,3.586Z" fill="#fff"/></svg>