<svg xmlns="http://www.w3.org/2000/svg" width="69.838" height="69.844" viewBox="0 0 69.838 69.844">
  <g id="Group_2986" data-name="Group 2986" transform="translate(-0.013)">
    <path id="Path_950" data-name="Path 950" d="M125.913,115.822l-13.9-13.9,9.916-5.728a2.336,2.336,0,0,0-.3-4.192L77.409,74.364A2.335,2.335,0,0,0,74.374,77.4L92.01,121.621a2.336,2.336,0,0,0,4.192.3l5.727-9.916,13.9,13.9a2.335,2.335,0,0,0,3.3,0l6.782-6.783A2.336,2.336,0,0,0,125.913,115.822Z" transform="translate(-56.747 -56.749)" fill="#fff"/>
    <path id="Path_951" data-name="Path 951" d="M30.642,27.328a2.336,2.336,0,1,0-3.3,3.3l5.19,5.19a2.336,2.336,0,0,0,3.3-3.3Z" transform="translate(-20.376 -20.379)" fill="#fff"/>
    <path id="Path_952" data-name="Path 952" d="M12.024,90.619a2.336,2.336,0,0,0-2.336-2.336H2.349a2.336,2.336,0,1,0,0,4.672H9.688A2.336,2.336,0,0,0,12.024,90.619Z" transform="translate(0 -67.522)" fill="#fff"/>
    <path id="Path_953" data-name="Path 953" d="M27.957,126.645l-5.191,5.19a2.336,2.336,0,0,0,3.3,3.3l5.19-5.19a2.336,2.336,0,0,0-3.3-3.3Z" transform="translate(-16.88 -96.34)" fill="#fff"/>
    <path id="Path_954" data-name="Path 954" d="M90.626,12.012a2.336,2.336,0,0,0,2.336-2.336V2.336a2.336,2.336,0,0,0-4.672,0v7.34A2.336,2.336,0,0,0,90.626,12.012Z" transform="translate(-67.517)" fill="#fff"/>
    <path id="Path_955" data-name="Path 955" d="M128.3,31.934a2.328,2.328,0,0,0,1.652-.684l5.19-5.19a2.336,2.336,0,0,0-3.3-3.3l-5.19,5.19a2.336,2.336,0,0,0,1.652,3.987Z" transform="translate(-96.33 -16.882)" fill="#fff"/>
  </g>
</svg>
