<?xml version="1.0" encoding="utf-8"?>
<!-- Generator: Adobe Illustrator 24.0.1, SVG Export Plug-In . SVG Version: 6.00 Build 0)  -->
<svg version="1.1" id="Speaker_Icon" xmlns="http://www.w3.org/2000/svg" xmlns:xlink="http://www.w3.org/1999/xlink" x="0px"
	 y="0px" viewBox="0 0 85 85" style="enable-background:new 0 0 85 85;" xml:space="preserve">
<style type="text/css">
	.st0{fill:#FFFFFF;}
</style>
<g id="Group_2863_2_" transform="translate(-135.434 -1552.821)">
	<path class="st0" d="M219.58,1612.43l-7.91-7.91c-1.14-1.14-2.98-1.14-4.12,0l-2.06,2.06l-1.32-30.45
		c-0.02-0.48-0.22-0.94-0.57-1.29c-0.76-0.76-1.99-0.76-2.74,0l-42.48,42.48c-0.34,0.34-0.54,0.8-0.57,1.29
		c-0.05,1.07,0.78,1.98,1.85,2.02l30.45,1.32l-0.58,0.58c-1.14,1.14-1.14,2.98,0,4.12l7.91,7.91c1.14,1.14,2.98,1.14,4.12,0
		l18.03-18.03C220.72,1615.41,220.72,1613.57,219.58,1612.43z"/>
	<g id="Line_115_2_">
		<path class="st0" d="M173.02,1592.14c-0.68,0-1.36-0.23-1.91-0.71l-21.02-18.27c-1.21-1.05-1.34-2.89-0.29-4.11
			c1.06-1.21,2.89-1.34,4.11-0.29l21.02,18.27c1.21,1.05,1.34,2.89,0.29,4.11C174.64,1591.8,173.83,1592.14,173.02,1592.14z"/>
	</g>
	<g id="Line_116_2_">
		<path class="st0" d="M183.98,1582.4c-1.46,0-2.72-1.1-2.89-2.59l-2.4-21.37c-0.18-1.6,0.97-3.04,2.57-3.22
			c1.59-0.18,3.04,0.97,3.22,2.57l2.4,21.37c0.18,1.6-0.97,3.04-2.57,3.22C184.2,1582.4,184.09,1582.4,183.98,1582.4z"/>
	</g>
	<g id="Line_117_2_">
		<path class="st0" d="M162.15,1603.65c-0.11,0-0.22-0.01-0.33-0.02l-23.81-2.67c-1.6-0.18-2.75-1.62-2.57-3.22
			c0.18-1.6,1.61-2.75,3.22-2.57l23.81,2.67c1.6,0.18,2.75,1.62,2.57,3.22C164.88,1602.55,163.62,1603.65,162.15,1603.65z"/>
	</g>
</g>
</svg>
