<svg id="Group_789" data-name="Group 789" xmlns="http://www.w3.org/2000/svg" width="50.175" height="30.942" viewBox="0 0 50.175 30.942">
  <g id="_2zf1uU.tif" data-name=" 2zf1uU.tif" transform="translate(0 0)">
    <g id="Group_804" data-name="Group 804">
      <path id="Path_165" data-name="Path 165" d="M718.229,758.863a34.039,34.039,0,0,1-.7,3.91c-.6,2.048-2.127,2.738-4.153,2.035a14.074,14.074,0,0,1-5.3-3.661c-1.331-1.344-2.526-2.822-3.809-4.214a1.273,1.273,0,0,0-.819-.4c-6.917-.022-13.835-.013-20.752-.03a1.059,1.059,0,0,0-.918.5,31.577,31.577,0,0,1-6.585,6.531,8.007,8.007,0,0,1-3.27,1.48,2.642,2.642,0,0,1-2.984-1.414,7.957,7.957,0,0,1-.861-3.611,31.953,31.953,0,0,1,1.233-9.624,38.84,38.84,0,0,1,4.359-10.776,18.434,18.434,0,0,1,2.387-3.11,6.8,6.8,0,0,1,8.49-1.47,9.062,9.062,0,0,1,2.959,2.155.944.944,0,0,0,.634.274q4.907.026,9.813,0a1.175,1.175,0,0,0,.725-.346,8.614,8.614,0,0,1,7.281-2.851,7.316,7.316,0,0,1,4.653,2.8,27.762,27.762,0,0,1,4.878,9.075,41.3,41.3,0,0,1,2.575,12.226c.007.167,0,.332,0,.5Zm-38.336-11.241c0,1.012.007,1.924,0,2.837-.006.553.255.8.8.791.479-.008.958,0,1.436,0,.923,0,1.058-.132,1.059-1.036v-2.59c.984,0,1.895,0,2.806,0,.493,0,.729-.215.709-.721-.017-.436,0-.874,0-1.311,0-1.151-.013-1.164-1.138-1.164h-2.381v-1.462c0-.457-.005-.916.007-1.376.015-.551-.245-.806-.793-.792-.582.012-1.166.02-1.748.009-.526-.01-.759.237-.755.756.007.77-.029,1.541,0,2.31.018.448-.149.579-.574.564-.707-.025-1.415-.008-2.123,0-.724.005-.845.123-.854.826-.006.479,0,.958,0,1.436,0,.779.132.914.893.916.854,0,1.706,0,2.663,0Zm23.963-3.857a1.82,1.82,0,0,0,1.846-1.793c0-.024,0-.048,0-.072a1.846,1.846,0,0,0-1.855-1.837h-.033a1.85,1.85,0,1,0,.044,3.7Zm1.846,5.925a1.854,1.854,0,0,0-1.8-1.909H703.9a1.9,1.9,0,0,0-1.916,1.822,1.876,1.876,0,0,0,1.822,1.9,1.85,1.85,0,0,0,1.9-1.8v-.012Zm-3.873-3.9a1.813,1.813,0,0,0-1.762-1.862h-.085a1.82,1.82,0,0,0-1.844,1.8v.01a1.811,1.811,0,0,0,1.733,1.888l.086,0a1.809,1.809,0,0,0,1.871-1.745c0-.03,0-.06,0-.09Zm5.887,1.826a1.819,1.819,0,0,0,1.858-1.778c0-.023,0-.048,0-.072a1.821,1.821,0,0,0-1.815-1.827h-.005a1.822,1.822,0,0,0-1.9,1.742c0,.026,0,.051,0,.077a1.839,1.839,0,0,0,1.822,1.857h.04Z" transform="translate(-668.053 -734.141)" fill="#ffa700"/>
    </g>
  </g>
</svg>
