<svg xmlns="http://www.w3.org/2000/svg" width="23.894" height="23.895" viewBox="0 0 23.894 23.895"><path d="M20.907,23.895H2.986A2.99,2.99,0,0,1,0,20.907V2.986A2.99,2.99,0,0,1,2.986,0H20.907a2.99,2.99,0,0,1,2.987,2.986V20.907A2.991,2.991,0,0,1,20.907,23.895ZM17.921,10.453h0l-6.374,6.374,5.5,5.574h3.859A1.5,1.5,0,0,0,22.4,20.907V14.933l-4.48-4.48Zm-10.5,4.44L1.493,20.206v.7A1.5,1.5,0,0,0,2.986,22.4H14.932ZM5.974,2.986A2.987,2.987,0,1,0,8.96,5.974,2.987,2.987,0,0,0,5.974,2.986Zm0,4.48A1.493,1.493,0,1,1,7.467,5.973v.001A1.495,1.495,0,0,1,5.974,7.467Z" fill="#fff"/></svg>