<svg xmlns="http://www.w3.org/2000/svg" width="97.579" height="97.579" viewBox="0 0 97.579 97.579"><g transform="translate(-1556.829 -1420.687)"><g transform="translate(1556.829 1420.687)"><g transform="translate(0 0)"><path d="M83.288,14.29a48.789,48.789,0,1,0-69,69,48.789,48.789,0,1,0,69-69ZM59.343,35.905a12.211,12.211,0,0,1,17.249,0,2.9,2.9,0,1,1-4.107,4.107,6.4,6.4,0,0,0-9.036,0,2.9,2.9,0,0,1-4.107-4.107Zm-38.357,0a12.211,12.211,0,0,1,17.249,0,2.9,2.9,0,1,1-4.107,4.107,6.4,6.4,0,0,0-9.036,0,2.9,2.9,0,0,1-4.107-4.107Zm27.8,46.572A28.687,28.687,0,0,1,20.135,53.823a2.9,2.9,0,0,1,2.9-2.9h51.5a2.9,2.9,0,0,1,2.9,2.9A28.687,28.687,0,0,1,48.789,82.477Z" transform="translate(0 0)" fill="#fff"/></g></g></g></svg>