<svg xmlns="http://www.w3.org/2000/svg" width="26.746" height="27.7" viewBox="0 0 26.746 27.7"><g transform="translate(-12.197 -10.976)"><g transform="translate(12.197 10.976)"><path d="M-1066.3,147.37a1.468,1.468,0,0,0,1.1-1.139,2.27,2.27,0,0,0-.408-2.182.43.43,0,0,1-.032-.058,2.281,2.281,0,0,0,.888-1.89,2.659,2.659,0,0,0-.654-2,3,3,0,0,0,.792-1.8,2.106,2.106,0,0,0-.943-2.223,9.368,9.368,0,0,0-.986-.55,3.476,3.476,0,0,0-1.68-.32c-1.751.034-3.5.035-5.255.049h-.245c.092-.176.163-.315.237-.454a8.4,8.4,0,0,0,.9-2.664,26.186,26.186,0,0,0,.38-3.247,6.438,6.438,0,0,0-.212-2.1,1.923,1.923,0,0,0-1.876-1.393,1.885,1.885,0,0,0-1.9,1.352,3.359,3.359,0,0,0-.133.833,13.013,13.013,0,0,0,0,1.4,2.123,2.123,0,0,1-.475,1.426,11.108,11.108,0,0,1-1.855,1.937,12.207,12.207,0,0,0-2.24,2.6,16.552,16.552,0,0,0-1.375,2.367,3.814,3.814,0,0,0-.378,1.619q.011,5.477,0,10.953c0,.018,0,.035,0,.053.009.509.125.651.634.734a4.16,4.16,0,0,0,.668.056q7.025,0,14.05,0c.617.14.964-.222,1.225-.693a2.2,2.2,0,0,0,.224-.684A2.433,2.433,0,0,0-1066.3,147.37Z" transform="translate(1091.324 -125.4)" fill="#fff"/><path d="M-806.365,311.218q0,3.326,0,6.653c0,.614.282.895.9.9q2.68,0,5.361,0a1.5,1.5,0,0,0,.4-.044.671.671,0,0,0,.5-.545,1.676,1.676,0,0,0,.028-.334q0-6.6,0-13.2a2.506,2.506,0,0,0-.021-.317.7.7,0,0,0-.642-.625c-.252-.019-.507-.012-.76-.012q-2.407,0-4.813,0a1.855,1.855,0,0,0-.387.027.721.721,0,0,0-.559.689c-.009.33,0,.661,0,.991Q-806.366,308.307-806.365,311.218Z" transform="translate(806.367 -291.067)" fill="#fff"/></g></g></svg>