<svg xmlns="http://www.w3.org/2000/svg" width="37.728" height="24.961" viewBox="0 0 37.728 24.961"><path d="M610.668,231.547h-35.16a1.284,1.284,0,0,0-1.284,1.284v22.392a1.284,1.284,0,0,0,1.284,1.284h35.16a1.284,1.284,0,0,0,1.284-1.284V232.831A1.284,1.284,0,0,0,610.668,231.547Zm-30.5,22.805a.2.2,0,0,1-.2.2h-3.149a.2.2,0,0,1-.2-.2V251.2a.2.2,0,0,1,.2-.2h3.149a.2.2,0,0,1,.2.2Zm0-5.833a.2.2,0,0,1-.2.2h-3.149a.2.2,0,0,1-.2-.2V245.37a.2.2,0,0,1,.2-.2h3.149a.2.2,0,0,1,.2.2Zm0-5.834a.2.2,0,0,1-.2.2h-3.149a.2.2,0,0,1-.2-.2v-3.149a.2.2,0,0,1,.2-.2h3.149a.2.2,0,0,1,.2.2Zm0-5.833a.2.2,0,0,1-.2.2h-3.149a.2.2,0,0,1-.2-.2V233.7a.2.2,0,0,1,.2-.2h3.149a.2.2,0,0,1,.2.2Zm29.391,17.5a.2.2,0,0,1-.2.2h-3.149a.2.2,0,0,1-.2-.2V251.2a.2.2,0,0,1,.2-.2h3.149a.2.2,0,0,1,.2.2Zm0-5.833a.2.2,0,0,1-.2.2h-3.149a.2.2,0,0,1-.2-.2V245.37a.2.2,0,0,1,.2-.2h3.149a.2.2,0,0,1,.2.2Zm0-5.834a.2.2,0,0,1-.2.2h-3.149a.2.2,0,0,1-.2-.2v-3.149a.2.2,0,0,1,.2-.2h3.149a.2.2,0,0,1,.2.2Zm0-5.833a.2.2,0,0,1-.2.2h-3.149a.2.2,0,0,1-.2-.2V233.7a.2.2,0,0,1,.2-.2h3.149a.2.2,0,0,1,.2.2Z" transform="translate(-574.224 -231.547)" fill="#fff"/></svg>